<?xml version="1.0" encoding="us-ascii" standalone="no"?><svg xmlns="http://www.w3.org/2000/svg" xmlns:xlink="http://www.w3.org/1999/xlink" contentStyleType="text/css" height="1234.375px" preserveAspectRatio="none" style="width:1232px;height:1234px;background:#FFFFFF;" version="1.1" viewBox="0 0 1232 1234" width="1232.2917px" zoomAndPan="magnify"><defs><linearGradient id="g1wowrmjdznjo50" x1="50%" x2="50%" y1="0%" y2="100%"><stop offset="0%" stop-color="#2FA4E7"/><stop offset="100%" stop-color="#2683B9"/></linearGradient></defs><g><!--class Users--><g id="elem_Users"><rect codeLine="4" fill="none" height="270.5068" id="Users" rx="4.1667" ry="4.1667" style="stroke:#2FA4E7;stroke-width:1.0416666666666667;" width="336.4583" x="306.7708" y="17.7083"/><rect fill="url(#g1wowrmjdznjo50)" height="34.759" rx="4.1667" ry="4.1667" style="stroke:url(#g1wowrmjdznjo50);stroke-width:1.0416666666666667;" width="336.4583" x="306.7708" y="17.7083"/><rect fill="url(#g1wowrmjdznjo50)" height="4.1667" style="stroke:url(#g1wowrmjdznjo50);stroke-width:1.0416666666666667;" width="336.4583" x="306.7708" y="48.3007"/><rect codeLine="4" fill="none" height="270.5068" id="Users" rx="4.1667" ry="4.1667" style="stroke:#2FA4E7;stroke-width:1.0416666666666667;" width="336.4583" x="306.7708" y="17.7083"/><ellipse cx="448.9583" cy="35.0878" fill="none" rx="10.4167" ry="10.4167" style="stroke:#2683B9;stroke-width:1.0416666666666667;"/><path d="M450.8687,39.5129 Q450.4415,39.7326 449.9715,39.8425 Q449.5015,39.9523 448.9827,39.9523 Q447.1395,39.9523 446.169,38.7377 Q445.1986,37.5231 445.1986,35.2282 Q445.1986,32.9272 446.169,31.7126 Q447.1395,30.498 448.9827,30.498 Q449.5015,30.498 449.9776,30.6079 Q450.4537,30.7177 450.8687,30.9374 L450.8687,32.9394 Q450.4049,32.5122 449.9685,32.3138 Q449.5321,32.1154 449.0682,32.1154 Q448.0794,32.1154 447.5759,32.8997 Q447.0723,33.684 447.0723,35.2282 Q447.0723,36.7663 447.5759,37.5506 Q448.0794,38.3349 449.0682,38.3349 Q449.5321,38.3349 449.9685,38.1365 Q450.4049,37.9382 450.8687,37.5109 Z " fill="#2FA4E7"/><text fill="#343A40" font-family="Verdana" font-size="11.4583" lengthAdjust="spacing" textLength="33.3333" x="473.9583" y="39.6449">Users</text><line style="stroke:#2FA4E7;stroke-width:1.0416666666666667;" x1="307.8125" x2="642.1875" y1="52.4673" y2="52.4673"/><ellipse cx="318.2292" cy="70.3677" fill="none" rx="3.125" ry="3.125" style="stroke:#2683B9;stroke-width:1.0416666666666667;"/><text fill="#343A40" font-family="Verdana" font-size="11.4583" lengthAdjust="spacing" textLength="34.375" x="331.7708" y="73.3622">id: int</text><ellipse cx="318.2292" cy="94.71" fill="none" rx="3.125" ry="3.125" style="stroke:#2683B9;stroke-width:1.0416666666666667;"/><text fill="#343A40" font-family="Verdana" font-size="11.4583" lengthAdjust="spacing" textLength="96.875" x="331.7708" y="97.7046">lastname: string</text><ellipse cx="318.2292" cy="119.0524" fill="none" rx="3.125" ry="3.125" style="stroke:#2683B9;stroke-width:1.0416666666666667;"/><text fill="#343A40" font-family="Verdana" font-size="11.4583" lengthAdjust="spacing" textLength="98.9583" x="331.7708" y="122.0469">firstname: string</text><ellipse cx="318.2292" cy="143.3947" fill="none" rx="3.125" ry="3.125" style="stroke:#2683B9;stroke-width:1.0416666666666667;"/><text fill="#343A40" font-family="Verdana" font-size="11.4583" lengthAdjust="spacing" textLength="102.0833" x="331.7708" y="146.3893">username: string</text><ellipse cx="318.2292" cy="167.7371" fill="none" rx="3.125" ry="3.125" style="stroke:#2683B9;stroke-width:1.0416666666666667;"/><text fill="#343A40" font-family="Verdana" font-size="11.4583" lengthAdjust="spacing" textLength="98.9583" x="331.7708" y="170.7316">password: string</text><ellipse cx="318.2292" cy="192.0794" fill="none" rx="3.125" ry="3.125" style="stroke:#2683B9;stroke-width:1.0416666666666667;"/><text fill="#343A40" font-family="Verdana" font-size="11.4583" lengthAdjust="spacing" textLength="85.4167" x="331.7708" y="195.074">role: UserRole</text><ellipse cx="318.2292" cy="216.4218" fill="none" rx="3.125" ry="3.125" style="stroke:#2683B9;stroke-width:1.0416666666666667;"/><text fill="#343A40" font-family="Verdana" font-size="11.4583" lengthAdjust="spacing" textLength="125" x="331.7708" y="219.4163">created_at: datetime</text><ellipse cx="318.2292" cy="240.7641" fill="none" rx="3.125" ry="3.125" style="stroke:#2683B9;stroke-width:1.0416666666666667;"/><text fill="#343A40" font-family="Verdana" font-size="11.4583" lengthAdjust="spacing" textLength="128.125" x="331.7708" y="243.7586">updated_at: datetime</text><line style="stroke:#2FA4E7;stroke-width:1.0416666666666667;" x1="307.8125" x2="642.1875" y1="255.5394" y2="255.5394"/><ellipse cx="318.2292" cy="273.4398" fill="none" rx="3.125" ry="3.125" style="stroke:#2683B9;stroke-width:1.0416666666666667;"/><text fill="#343A40" font-family="Verdana" font-size="11.4583" lengthAdjust="spacing" textLength="300" x="331.7708" y="276.4343">authenticate(email: string, password: string): bool</text></g><!--class UserRole--><g id="elem_UserRole"><rect codeLine="16" fill="none" height="148.7951" id="UserRole" rx="4.1667" ry="4.1667" style="stroke:#2FA4E7;stroke-width:1.0416666666666667;" width="94.7917" x="730.7292" y="78.5625"/><rect fill="url(#g1wowrmjdznjo50)" height="34.759" rx="4.1667" ry="4.1667" style="stroke:url(#g1wowrmjdznjo50);stroke-width:1.0416666666666667;" width="94.7917" x="730.7292" y="78.5625"/><rect fill="url(#g1wowrmjdznjo50)" height="4.1667" style="stroke:url(#g1wowrmjdznjo50);stroke-width:1.0416666666666667;" width="94.7917" x="730.7292" y="109.1548"/><rect codeLine="16" fill="none" height="148.7951" id="UserRole" rx="4.1667" ry="4.1667" style="stroke:#2FA4E7;stroke-width:1.0416666666666667;" width="94.7917" x="730.7292" y="78.5625"/><ellipse cx="745.3125" cy="95.942" fill="none" rx="10.4167" ry="10.4167" style="stroke:#2683B9;stroke-width:1.0416666666666667;"/><path d="M747.8475,100.6295 L742.1712,100.6295 L742.1712,91.517 L747.8475,91.517 L747.8475,93.1039 L743.9718,93.1039 L743.9718,95.0692 L747.4813,95.0692 L747.4813,96.6561 L743.9718,96.6561 L743.9718,99.0426 L747.8475,99.0426 Z " fill="#2FA4E7"/><text fill="#343A40" font-family="Verdana" font-size="11.4583" lengthAdjust="spacing" textLength="53.125" x="764.0625" y="100.499">UserRole</text><line style="stroke:#2FA4E7;stroke-width:1.0416666666666667;" x1="731.7708" x2="824.4792" y1="113.3215" y2="113.3215"/><text fill="#343A40" font-family="Verdana" font-size="11.4583" lengthAdjust="spacing" textLength="39.5833" x="742.1875" y="134.2164">ADMIN</text><text fill="#343A40" font-family="Verdana" font-size="11.4583" lengthAdjust="spacing" textLength="61.4583" x="742.1875" y="158.5587">EMPLOYEE</text><text fill="#343A40" font-family="Verdana" font-size="11.4583" lengthAdjust="spacing" textLength="22.9167" x="742.1875" y="182.9011">VET</text><text fill="#343A40" font-family="Verdana" font-size="11.4583" lengthAdjust="spacing" textLength="52.0833" x="742.1875" y="207.2434">VISITOR</text><line style="stroke:#2FA4E7;stroke-width:1.0416666666666667;" x1="731.7708" x2="824.4792" y1="219.0242" y2="219.0242"/></g><!--class Services--><g id="elem_Services"><rect codeLine="23" fill="none" height="173.1374" id="Services" rx="4.1667" ry="4.1667" style="stroke:#2FA4E7;stroke-width:1.0416666666666667;" width="164.5833" x="659.375" y="389.9688"/><rect fill="url(#g1wowrmjdznjo50)" height="34.759" rx="4.1667" ry="4.1667" style="stroke:url(#g1wowrmjdznjo50);stroke-width:1.0416666666666667;" width="164.5833" x="659.375" y="389.9688"/><rect fill="url(#g1wowrmjdznjo50)" height="4.1667" style="stroke:url(#g1wowrmjdznjo50);stroke-width:1.0416666666666667;" width="164.5833" x="659.375" y="420.5611"/><rect codeLine="23" fill="none" height="173.1374" id="Services" rx="4.1667" ry="4.1667" style="stroke:#2FA4E7;stroke-width:1.0416666666666667;" width="164.5833" x="659.375" y="389.9688"/><ellipse cx="706.7708" cy="407.3483" fill="none" rx="10.4167" ry="10.4167" style="stroke:#2683B9;stroke-width:1.0416666666666667;"/><path d="M708.6812,411.7733 Q708.254,411.993 707.784,412.1029 Q707.314,412.2128 706.7952,412.2128 Q704.952,412.2128 703.9815,410.9982 Q703.0111,409.7836 703.0111,407.4886 Q703.0111,405.1876 703.9815,403.973 Q704.952,402.7584 706.7952,402.7584 Q707.314,402.7584 707.7901,402.8683 Q708.2662,402.9781 708.6812,403.1979 L708.6812,405.1998 Q708.2174,404.7726 707.781,404.5742 Q707.3446,404.3758 706.8807,404.3758 Q705.8919,404.3758 705.3884,405.1601 Q704.8848,405.9444 704.8848,407.4886 Q704.8848,409.0267 705.3884,409.811 Q705.8919,410.5953 706.8807,410.5953 Q707.3446,410.5953 707.781,410.397 Q708.2174,410.1986 708.6812,409.7714 Z " fill="#2FA4E7"/><text fill="#343A40" font-family="Verdana" font-size="11.4583" lengthAdjust="spacing" textLength="51.0417" x="731.7708" y="411.9053">Services</text><line style="stroke:#2FA4E7;stroke-width:1.0416666666666667;" x1="660.4167" x2="822.9167" y1="424.7278" y2="424.7278"/><ellipse cx="670.8333" cy="442.6281" fill="none" rx="3.125" ry="3.125" style="stroke:#2683B9;stroke-width:1.0416666666666667;"/><text fill="#343A40" font-family="Verdana" font-size="11.4583" lengthAdjust="spacing" textLength="34.375" x="684.375" y="445.6226">id: int</text><ellipse cx="670.8333" cy="466.9704" fill="none" rx="3.125" ry="3.125" style="stroke:#2683B9;stroke-width:1.0416666666666667;"/><text fill="#343A40" font-family="Verdana" font-size="11.4583" lengthAdjust="spacing" textLength="76.0417" x="684.375" y="469.965">name: string</text><ellipse cx="670.8333" cy="491.3128" fill="none" rx="3.125" ry="3.125" style="stroke:#2683B9;stroke-width:1.0416666666666667;"/><text fill="#343A40" font-family="Verdana" font-size="11.4583" lengthAdjust="spacing" textLength="107.2917" x="684.375" y="494.3073">description: string</text><ellipse cx="670.8333" cy="515.6551" fill="none" rx="3.125" ry="3.125" style="stroke:#2683B9;stroke-width:1.0416666666666667;"/><text fill="#343A40" font-family="Verdana" font-size="11.4583" lengthAdjust="spacing" textLength="125" x="684.375" y="518.6497">created_at: datetime</text><ellipse cx="670.8333" cy="539.9975" fill="none" rx="3.125" ry="3.125" style="stroke:#2683B9;stroke-width:1.0416666666666667;"/><text fill="#343A40" font-family="Verdana" font-size="11.4583" lengthAdjust="spacing" textLength="128.125" x="684.375" y="542.992">updated_at: datetime</text><line style="stroke:#2FA4E7;stroke-width:1.0416666666666667;" x1="660.4167" x2="822.9167" y1="554.7728" y2="554.7728"/></g><!--class OpeningHours--><g id="elem_OpeningHours"><rect codeLine="31" fill="none" height="148.7951" id="OpeningHours" rx="4.1667" ry="4.1667" style="stroke:#2FA4E7;stroke-width:1.0416666666666667;" width="159.375" x="859.8958" y="402.1354"/><rect fill="url(#g1wowrmjdznjo50)" height="34.759" rx="4.1667" ry="4.1667" style="stroke:url(#g1wowrmjdznjo50);stroke-width:1.0416666666666667;" width="159.375" x="859.8958" y="402.1354"/><rect fill="url(#g1wowrmjdznjo50)" height="4.1667" style="stroke:url(#g1wowrmjdznjo50);stroke-width:1.0416666666666667;" width="159.375" x="859.8958" y="432.7278"/><rect codeLine="31" fill="none" height="148.7951" id="OpeningHours" rx="4.1667" ry="4.1667" style="stroke:#2FA4E7;stroke-width:1.0416666666666667;" width="159.375" x="859.8958" y="402.1354"/><ellipse cx="889.9479" cy="419.5149" fill="none" rx="10.4167" ry="10.4167" style="stroke:#2683B9;stroke-width:1.0416666666666667;"/><path d="M891.8583,423.94 Q891.4311,424.1597 890.9611,424.2696 Q890.4911,424.3794 889.9723,424.3794 Q888.1291,424.3794 887.1586,423.1648 Q886.1882,421.9502 886.1882,419.6553 Q886.1882,417.3543 887.1586,416.1397 Q888.1291,414.9251 889.9723,414.9251 Q890.4911,414.9251 890.9672,415.0349 Q891.4433,415.1448 891.8583,415.3645 L891.8583,417.3665 Q891.3944,416.9392 890.958,416.7409 Q890.5216,416.5425 890.0578,416.5425 Q889.069,416.5425 888.5655,417.3268 Q888.0619,418.1111 888.0619,419.6553 Q888.0619,421.1934 888.5655,421.9777 Q889.069,422.762 890.0578,422.762 Q890.5216,422.762 890.958,422.5636 Q891.3944,422.3653 891.8583,421.938 Z " fill="#2FA4E7"/><text fill="#343A40" font-family="Verdana" font-size="11.4583" lengthAdjust="spacing" textLength="83.3333" x="912.1354" y="424.072">OpeningHours</text><line style="stroke:#2FA4E7;stroke-width:1.0416666666666667;" x1="860.9375" x2="1018.2292" y1="436.8944" y2="436.8944"/><ellipse cx="871.3542" cy="454.7948" fill="none" rx="3.125" ry="3.125" style="stroke:#2683B9;stroke-width:1.0416666666666667;"/><text fill="#343A40" font-family="Verdana" font-size="11.4583" lengthAdjust="spacing" textLength="34.375" x="884.8958" y="457.7893">id: int</text><ellipse cx="871.3542" cy="479.1371" fill="none" rx="3.125" ry="3.125" style="stroke:#2683B9;stroke-width:1.0416666666666667;"/><text fill="#343A40" font-family="Verdana" font-size="11.4583" lengthAdjust="spacing" textLength="64.5833" x="884.8958" y="482.1317">day: string</text><ellipse cx="871.3542" cy="503.4795" fill="none" rx="3.125" ry="3.125" style="stroke:#2683B9;stroke-width:1.0416666666666667;"/><text fill="#343A40" font-family="Verdana" font-size="11.4583" lengthAdjust="spacing" textLength="122.9167" x="884.8958" y="506.474">opening_time: string</text><ellipse cx="871.3542" cy="527.8218" fill="none" rx="3.125" ry="3.125" style="stroke:#2683B9;stroke-width:1.0416666666666667;"/><text fill="#343A40" font-family="Verdana" font-size="11.4583" lengthAdjust="spacing" textLength="116.6667" x="884.8958" y="530.8163">closing_time: string</text><line style="stroke:#2FA4E7;stroke-width:1.0416666666666667;" x1="860.9375" x2="1018.2292" y1="542.5971" y2="542.5971"/></g><!--class Habitats--><g id="elem_Habitats"><rect codeLine="38" fill="none" height="197.4798" id="Habitats" rx="4.1667" ry="4.1667" style="stroke:#2FA4E7;stroke-width:1.0416666666666667;" width="164.5833" x="237.5" y="377.7917"/><rect fill="url(#g1wowrmjdznjo50)" height="34.759" rx="4.1667" ry="4.1667" style="stroke:url(#g1wowrmjdznjo50);stroke-width:1.0416666666666667;" width="164.5833" x="237.5" y="377.7917"/><rect fill="url(#g1wowrmjdznjo50)" height="4.1667" style="stroke:url(#g1wowrmjdznjo50);stroke-width:1.0416666666666667;" width="164.5833" x="237.5" y="408.384"/><rect codeLine="38" fill="none" height="197.4798" id="Habitats" rx="4.1667" ry="4.1667" style="stroke:#2FA4E7;stroke-width:1.0416666666666667;" width="164.5833" x="237.5" y="377.7917"/><ellipse cx="286.4583" cy="395.1712" fill="none" rx="10.4167" ry="10.4167" style="stroke:#2683B9;stroke-width:1.0416666666666667;"/><path d="M288.3687,399.5962 Q287.9415,399.8159 287.4715,399.9258 Q287.0015,400.0357 286.4827,400.0357 Q284.6395,400.0357 283.669,398.8211 Q282.6986,397.6065 282.6986,395.3116 Q282.6986,393.0105 283.669,391.7959 Q284.6395,390.5813 286.4827,390.5813 Q287.0015,390.5813 287.4776,390.6912 Q287.9537,390.8011 288.3687,391.0208 L288.3687,393.0227 Q287.9049,392.5955 287.4685,392.3971 Q287.0321,392.1988 286.5682,392.1988 Q285.5794,392.1988 285.0759,392.9831 Q284.5723,393.7674 284.5723,395.3116 Q284.5723,396.8496 285.0759,397.6339 Q285.5794,398.4182 286.5682,398.4182 Q287.0321,398.4182 287.4685,398.2199 Q287.9049,398.0215 288.3687,397.5943 Z " fill="#2FA4E7"/><text fill="#343A40" font-family="Verdana" font-size="11.4583" lengthAdjust="spacing" textLength="47.9167" x="311.4583" y="399.7282">Habitats</text><line style="stroke:#2FA4E7;stroke-width:1.0416666666666667;" x1="238.5417" x2="401.0417" y1="412.5507" y2="412.5507"/><ellipse cx="248.9583" cy="430.451" fill="none" rx="3.125" ry="3.125" style="stroke:#2683B9;stroke-width:1.0416666666666667;"/><text fill="#343A40" font-family="Verdana" font-size="11.4583" lengthAdjust="spacing" textLength="34.375" x="262.5" y="433.4456">id: int</text><ellipse cx="248.9583" cy="454.7934" fill="none" rx="3.125" ry="3.125" style="stroke:#2683B9;stroke-width:1.0416666666666667;"/><text fill="#343A40" font-family="Verdana" font-size="11.4583" lengthAdjust="spacing" textLength="107.2917" x="262.5" y="457.7879">description: string</text><ellipse cx="248.9583" cy="479.1357" fill="none" rx="3.125" ry="3.125" style="stroke:#2683B9;stroke-width:1.0416666666666667;"/><text fill="#343A40" font-family="Verdana" font-size="11.4583" lengthAdjust="spacing" textLength="71.875" x="262.5" y="482.1302">state: string</text><ellipse cx="248.9583" cy="503.4781" fill="none" rx="3.125" ry="3.125" style="stroke:#2683B9;stroke-width:1.0416666666666667;"/><text fill="#343A40" font-family="Verdana" font-size="11.4583" lengthAdjust="spacing" textLength="97.9167" x="262.5" y="506.4726">comment: string</text><ellipse cx="248.9583" cy="527.8204" fill="none" rx="3.125" ry="3.125" style="stroke:#2683B9;stroke-width:1.0416666666666667;"/><text fill="#343A40" font-family="Verdana" font-size="11.4583" lengthAdjust="spacing" textLength="125" x="262.5" y="530.8149">created_at: datetime</text><ellipse cx="248.9583" cy="552.1628" fill="none" rx="3.125" ry="3.125" style="stroke:#2683B9;stroke-width:1.0416666666666667;"/><text fill="#343A40" font-family="Verdana" font-size="11.4583" lengthAdjust="spacing" textLength="128.125" x="262.5" y="555.1573">updated_at: datetime</text><line style="stroke:#2FA4E7;stroke-width:1.0416666666666667;" x1="238.5417" x2="401.0417" y1="566.9381" y2="566.9381"/></g><!--class Animals--><g id="elem_Animals"><rect codeLine="47" fill="none" height="246.1644" id="Animals" rx="4.1667" ry="4.1667" style="stroke:#2FA4E7;stroke-width:1.0416666666666667;" width="170.8333" x="104.1667" y="664.8542"/><rect fill="url(#g1wowrmjdznjo50)" height="34.759" rx="4.1667" ry="4.1667" style="stroke:url(#g1wowrmjdznjo50);stroke-width:1.0416666666666667;" width="170.8333" x="104.1667" y="664.8542"/><rect fill="url(#g1wowrmjdznjo50)" height="4.1667" style="stroke:url(#g1wowrmjdznjo50);stroke-width:1.0416666666666667;" width="170.8333" x="104.1667" y="695.4465"/><rect codeLine="47" fill="none" height="246.1644" id="Animals" rx="4.1667" ry="4.1667" style="stroke:#2FA4E7;stroke-width:1.0416666666666667;" width="170.8333" x="104.1667" y="664.8542"/><ellipse cx="156.7708" cy="682.2337" fill="none" rx="10.4167" ry="10.4167" style="stroke:#2683B9;stroke-width:1.0416666666666667;"/><path d="M158.6812,686.6587 Q158.254,686.8784 157.784,686.9883 Q157.314,687.0982 156.7952,687.0982 Q154.952,687.0982 153.9815,685.8836 Q153.0111,684.669 153.0111,682.3741 Q153.0111,680.073 153.9815,678.8584 Q154.952,677.6438 156.7952,677.6438 Q157.314,677.6438 157.7901,677.7537 Q158.2662,677.8636 158.6812,678.0833 L158.6812,680.0852 Q158.2174,679.658 157.781,679.4596 Q157.3446,679.2613 156.8807,679.2613 Q155.8919,679.2613 155.3884,680.0456 Q154.8848,680.8299 154.8848,682.3741 Q154.8848,683.9121 155.3884,684.6964 Q155.8919,685.4807 156.8807,685.4807 Q157.3446,685.4807 157.781,685.2824 Q158.2174,685.084 158.6812,684.6568 Z " fill="#2FA4E7"/><text fill="#343A40" font-family="Verdana" font-size="11.4583" lengthAdjust="spacing" textLength="46.875" x="181.7708" y="686.7907">Animals</text><line style="stroke:#2FA4E7;stroke-width:1.0416666666666667;" x1="105.2083" x2="273.9583" y1="699.6132" y2="699.6132"/><ellipse cx="115.625" cy="717.5135" fill="none" rx="3.125" ry="3.125" style="stroke:#2683B9;stroke-width:1.0416666666666667;"/><text fill="#343A40" font-family="Verdana" font-size="11.4583" lengthAdjust="spacing" textLength="34.375" x="129.1667" y="720.5081">id: int</text><ellipse cx="115.625" cy="741.8559" fill="none" rx="3.125" ry="3.125" style="stroke:#2683B9;stroke-width:1.0416666666666667;"/><text fill="#343A40" font-family="Verdana" font-size="11.4583" lengthAdjust="spacing" textLength="100" x="129.1667" y="744.8504">nickname: string</text><ellipse cx="115.625" cy="766.1982" fill="none" rx="3.125" ry="3.125" style="stroke:#2683B9;stroke-width:1.0416666666666667;"/><text fill="#343A40" font-family="Verdana" font-size="11.4583" lengthAdjust="spacing" textLength="117.7083" x="129.1667" y="769.1927">classification: string</text><ellipse cx="115.625" cy="790.5406" fill="none" rx="3.125" ry="3.125" style="stroke:#2683B9;stroke-width:1.0416666666666667;"/><text fill="#343A40" font-family="Verdana" font-size="11.4583" lengthAdjust="spacing" textLength="69.7917" x="129.1667" y="793.5351">area: string</text><ellipse cx="115.625" cy="814.8829" fill="none" rx="3.125" ry="3.125" style="stroke:#2683B9;stroke-width:1.0416666666666667;"/><text fill="#343A40" font-family="Verdana" font-size="11.4583" lengthAdjust="spacing" textLength="107.2917" x="129.1667" y="817.8774">description: string</text><ellipse cx="115.625" cy="839.2253" fill="none" rx="3.125" ry="3.125" style="stroke:#2683B9;stroke-width:1.0416666666666667;"/><text fill="#343A40" font-family="Verdana" font-size="11.4583" lengthAdjust="spacing" textLength="134.375" x="129.1667" y="842.2198">consultation_count: int</text><ellipse cx="115.625" cy="863.5676" fill="none" rx="3.125" ry="3.125" style="stroke:#2683B9;stroke-width:1.0416666666666667;"/><text fill="#343A40" font-family="Verdana" font-size="11.4583" lengthAdjust="spacing" textLength="125" x="129.1667" y="866.5621">created_at: datetime</text><ellipse cx="115.625" cy="887.9099" fill="none" rx="3.125" ry="3.125" style="stroke:#2683B9;stroke-width:1.0416666666666667;"/><text fill="#343A40" font-family="Verdana" font-size="11.4583" lengthAdjust="spacing" textLength="128.125" x="129.1667" y="890.9045">updated_at: datetime</text><line style="stroke:#2FA4E7;stroke-width:1.0416666666666667;" x1="105.2083" x2="273.9583" y1="902.6853" y2="902.6853"/></g><!--class Testimonials--><g id="elem_Testimonials"><rect codeLine="58" fill="none" height="197.4798" id="Testimonials" rx="4.1667" ry="4.1667" style="stroke:#2FA4E7;stroke-width:1.0416666666666667;" width="164.5833" x="1055.2083" y="377.7917"/><rect fill="url(#g1wowrmjdznjo50)" height="34.759" rx="4.1667" ry="4.1667" style="stroke:url(#g1wowrmjdznjo50);stroke-width:1.0416666666666667;" width="164.5833" x="1055.2083" y="377.7917"/><rect fill="url(#g1wowrmjdznjo50)" height="4.1667" style="stroke:url(#g1wowrmjdznjo50);stroke-width:1.0416666666666667;" width="164.5833" x="1055.2083" y="408.384"/><rect codeLine="58" fill="none" height="197.4798" id="Testimonials" rx="4.1667" ry="4.1667" style="stroke:#2FA4E7;stroke-width:1.0416666666666667;" width="164.5833" x="1055.2083" y="377.7917"/><ellipse cx="1091.8229" cy="395.1712" fill="none" rx="10.4167" ry="10.4167" style="stroke:#2683B9;stroke-width:1.0416666666666667;"/><path d="M1093.7333,399.5962 Q1093.3061,399.8159 1092.8361,399.9258 Q1092.3661,400.0357 1091.8473,400.0357 Q1090.0041,400.0357 1089.0336,398.8211 Q1088.0632,397.6065 1088.0632,395.3116 Q1088.0632,393.0105 1089.0336,391.7959 Q1090.0041,390.5813 1091.8473,390.5813 Q1092.3661,390.5813 1092.8422,390.6912 Q1093.3183,390.8011 1093.7333,391.0208 L1093.7333,393.0227 Q1093.2694,392.5955 1092.833,392.3971 Q1092.3966,392.1988 1091.9328,392.1988 Q1090.944,392.1988 1090.4405,392.9831 Q1089.9369,393.7674 1089.9369,395.3116 Q1089.9369,396.8496 1090.4405,397.6339 Q1090.944,398.4182 1091.9328,398.4182 Q1092.3966,398.4182 1092.833,398.2199 Q1093.2694,398.0215 1093.7333,397.5943 Z " fill="#2FA4E7"/><text fill="#343A40" font-family="Verdana" font-size="11.4583" lengthAdjust="spacing" textLength="73.9583" x="1115.4688" y="399.7282">Testimonials</text><line style="stroke:#2FA4E7;stroke-width:1.0416666666666667;" x1="1056.25" x2="1218.75" y1="412.5507" y2="412.5507"/><ellipse cx="1066.6667" cy="430.451" fill="none" rx="3.125" ry="3.125" style="stroke:#2683B9;stroke-width:1.0416666666666667;"/><text fill="#343A40" font-family="Verdana" font-size="11.4583" lengthAdjust="spacing" textLength="34.375" x="1080.2083" y="433.4456">id: int</text><ellipse cx="1066.6667" cy="454.7934" fill="none" rx="3.125" ry="3.125" style="stroke:#2683B9;stroke-width:1.0416666666666667;"/><text fill="#343A40" font-family="Verdana" font-size="11.4583" lengthAdjust="spacing" textLength="85.4167" x="1080.2083" y="457.7879">pseudo: string</text><ellipse cx="1066.6667" cy="479.1357" fill="none" rx="3.125" ry="3.125" style="stroke:#2683B9;stroke-width:1.0416666666666667;"/><text fill="#343A40" font-family="Verdana" font-size="11.4583" lengthAdjust="spacing" textLength="86.4583" x="1080.2083" y="482.1302">content: string</text><ellipse cx="1066.6667" cy="503.4781" fill="none" rx="3.125" ry="3.125" style="stroke:#2683B9;stroke-width:1.0416666666666667;"/><text fill="#343A40" font-family="Verdana" font-size="11.4583" lengthAdjust="spacing" textLength="88.5417" x="1080.2083" y="506.4726">is_visible: bool</text><ellipse cx="1066.6667" cy="527.8204" fill="none" rx="3.125" ry="3.125" style="stroke:#2683B9;stroke-width:1.0416666666666667;"/><text fill="#343A40" font-family="Verdana" font-size="11.4583" lengthAdjust="spacing" textLength="125" x="1080.2083" y="530.8149">created_at: datetime</text><ellipse cx="1066.6667" cy="552.1628" fill="none" rx="3.125" ry="3.125" style="stroke:#2683B9;stroke-width:1.0416666666666667;"/><text fill="#343A40" font-family="Verdana" font-size="11.4583" lengthAdjust="spacing" textLength="128.125" x="1080.2083" y="555.1573">updated_at: datetime</text><line style="stroke:#2FA4E7;stroke-width:1.0416666666666667;" x1="1056.25" x2="1218.75" y1="566.9381" y2="566.9381"/></g><!--class Images--><g id="elem_Images"><rect codeLine="67" fill="none" height="173.1374" id="Images" rx="4.1667" ry="4.1667" style="stroke:#2FA4E7;stroke-width:1.0416666666666667;" width="164.5833" x="384.375" y="701.375"/><rect fill="url(#g1wowrmjdznjo50)" height="34.759" rx="4.1667" ry="4.1667" style="stroke:url(#g1wowrmjdznjo50);stroke-width:1.0416666666666667;" width="164.5833" x="384.375" y="701.375"/><rect fill="url(#g1wowrmjdznjo50)" height="4.1667" style="stroke:url(#g1wowrmjdznjo50);stroke-width:1.0416666666666667;" width="164.5833" x="384.375" y="731.9673"/><rect codeLine="67" fill="none" height="173.1374" id="Images" rx="4.1667" ry="4.1667" style="stroke:#2FA4E7;stroke-width:1.0416666666666667;" width="164.5833" x="384.375" y="701.375"/><ellipse cx="434.8958" cy="718.7545" fill="none" rx="10.4167" ry="10.4167" style="stroke:#2683B9;stroke-width:1.0416666666666667;"/><path d="M436.8062,723.1796 Q436.379,723.3993 435.909,723.5091 Q435.439,723.619 434.9202,723.619 Q433.077,723.619 432.1065,722.4044 Q431.1361,721.1898 431.1361,718.8949 Q431.1361,716.5939 432.1065,715.3793 Q433.077,714.1647 434.9202,714.1647 Q435.439,714.1647 435.9151,714.2745 Q436.3912,714.3844 436.8062,714.6041 L436.8062,716.6061 Q436.3424,716.1788 435.906,715.9805 Q435.4696,715.7821 435.0057,715.7821 Q434.0169,715.7821 433.5134,716.5664 Q433.0098,717.3507 433.0098,718.8949 Q433.0098,720.433 433.5134,721.2173 Q434.0169,722.0016 435.0057,722.0016 Q435.4696,722.0016 435.906,721.8032 Q436.3424,721.6048 436.8062,721.1776 Z " fill="#2FA4E7"/><text fill="#343A40" font-family="Verdana" font-size="11.4583" lengthAdjust="spacing" textLength="44.7917" x="459.8958" y="723.3115">Images</text><line style="stroke:#2FA4E7;stroke-width:1.0416666666666667;" x1="385.4167" x2="547.9167" y1="736.134" y2="736.134"/><ellipse cx="395.8333" cy="754.0344" fill="none" rx="3.125" ry="3.125" style="stroke:#2683B9;stroke-width:1.0416666666666667;"/><text fill="#343A40" font-family="Verdana" font-size="11.4583" lengthAdjust="spacing" textLength="34.375" x="409.375" y="757.0289">id: int</text><ellipse cx="395.8333" cy="778.3767" fill="none" rx="3.125" ry="3.125" style="stroke:#2683B9;stroke-width:1.0416666666666667;"/><text fill="#343A40" font-family="Verdana" font-size="11.4583" lengthAdjust="spacing" textLength="68.75" x="409.375" y="781.3712">path: string</text><ellipse cx="395.8333" cy="802.719" fill="none" rx="3.125" ry="3.125" style="stroke:#2683B9;stroke-width:1.0416666666666667;"/><text fill="#343A40" font-family="Verdana" font-size="11.4583" lengthAdjust="spacing" textLength="46.875" x="409.375" y="805.7136">size: int</text><ellipse cx="395.8333" cy="827.0614" fill="none" rx="3.125" ry="3.125" style="stroke:#2683B9;stroke-width:1.0416666666666667;"/><text fill="#343A40" font-family="Verdana" font-size="11.4583" lengthAdjust="spacing" textLength="125" x="409.375" y="830.0559">created_at: datetime</text><ellipse cx="395.8333" cy="851.4037" fill="none" rx="3.125" ry="3.125" style="stroke:#2683B9;stroke-width:1.0416666666666667;"/><text fill="#343A40" font-family="Verdana" font-size="11.4583" lengthAdjust="spacing" textLength="128.125" x="409.375" y="854.3983">updated_at: datetime</text><line style="stroke:#2FA4E7;stroke-width:1.0416666666666667;" x1="385.4167" x2="547.9167" y1="866.1791" y2="866.1791"/></g><!--class VetReports--><g id="elem_VetReports"><rect codeLine="75" fill="none" height="173.1374" id="VetReports" rx="4.1667" ry="4.1667" style="stroke:#2FA4E7;stroke-width:1.0416666666666667;" width="164.5833" x="17.7083" y="1024.9479"/><rect fill="url(#g1wowrmjdznjo50)" height="34.759" rx="4.1667" ry="4.1667" style="stroke:url(#g1wowrmjdznjo50);stroke-width:1.0416666666666667;" width="164.5833" x="17.7083" y="1024.9479"/><rect fill="url(#g1wowrmjdznjo50)" height="4.1667" style="stroke:url(#g1wowrmjdznjo50);stroke-width:1.0416666666666667;" width="164.5833" x="17.7083" y="1055.5403"/><rect codeLine="75" fill="none" height="173.1374" id="VetReports" rx="4.1667" ry="4.1667" style="stroke:#2FA4E7;stroke-width:1.0416666666666667;" width="164.5833" x="17.7083" y="1024.9479"/><ellipse cx="58.0729" cy="1042.3274" fill="none" rx="10.4167" ry="10.4167" style="stroke:#2683B9;stroke-width:1.0416666666666667;"/><path d="M59.9833,1046.7525 Q59.5561,1046.9722 59.0861,1047.0821 Q58.6161,1047.1919 58.0973,1047.1919 Q56.2541,1047.1919 55.2836,1045.9773 Q54.3132,1044.7627 54.3132,1042.4678 Q54.3132,1040.1668 55.2836,1038.9522 Q56.2541,1037.7376 58.0973,1037.7376 Q58.6161,1037.7376 59.0922,1037.8474 Q59.5683,1037.9573 59.9833,1038.177 L59.9833,1040.179 Q59.5194,1039.7517 59.083,1039.5534 Q58.6466,1039.355 58.1828,1039.355 Q57.194,1039.355 56.6905,1040.1393 Q56.1869,1040.9236 56.1869,1042.4678 Q56.1869,1044.0059 56.6905,1044.7902 Q57.194,1045.5745 58.1828,1045.5745 Q58.6466,1045.5745 59.083,1045.3761 Q59.5194,1045.1778 59.9833,1044.7505 Z " fill="#2FA4E7"/><text fill="#343A40" font-family="Verdana" font-size="11.4583" lengthAdjust="spacing" textLength="65.625" x="82.5521" y="1046.8845">VetReports</text><line style="stroke:#2FA4E7;stroke-width:1.0416666666666667;" x1="18.75" x2="181.25" y1="1059.7069" y2="1059.7069"/><ellipse cx="29.1667" cy="1077.6073" fill="none" rx="3.125" ry="3.125" style="stroke:#2683B9;stroke-width:1.0416666666666667;"/><text fill="#343A40" font-family="Verdana" font-size="11.4583" lengthAdjust="spacing" textLength="34.375" x="42.7083" y="1080.6018">id: int</text><ellipse cx="29.1667" cy="1101.9496" fill="none" rx="3.125" ry="3.125" style="stroke:#2683B9;stroke-width:1.0416666666666667;"/><text fill="#343A40" font-family="Verdana" font-size="11.4583" lengthAdjust="spacing" textLength="81.25" x="42.7083" y="1104.9442">animal_id: int</text><ellipse cx="29.1667" cy="1126.292" fill="none" rx="3.125" ry="3.125" style="stroke:#2683B9;stroke-width:1.0416666666666667;"/><text fill="#343A40" font-family="Verdana" font-size="11.4583" lengthAdjust="spacing" textLength="76.0417" x="42.7083" y="1129.2865">content: text</text><ellipse cx="29.1667" cy="1150.6343" fill="none" rx="3.125" ry="3.125" style="stroke:#2683B9;stroke-width:1.0416666666666667;"/><text fill="#343A40" font-family="Verdana" font-size="11.4583" lengthAdjust="spacing" textLength="125" x="42.7083" y="1153.6288">created_at: datetime</text><ellipse cx="29.1667" cy="1174.9767" fill="none" rx="3.125" ry="3.125" style="stroke:#2683B9;stroke-width:1.0416666666666667;"/><text fill="#343A40" font-family="Verdana" font-size="11.4583" lengthAdjust="spacing" textLength="128.125" x="42.7083" y="1177.9712">updated_at: datetime</text><line style="stroke:#2FA4E7;stroke-width:1.0416666666666667;" x1="18.75" x2="181.25" y1="1189.752" y2="1189.752"/></g><!--class FoodConsumption--><g id="elem_FoodConsumption"><rect codeLine="83" fill="none" height="221.8221" id="FoodConsumption" rx="4.1667" ry="4.1667" style="stroke:#2FA4E7;stroke-width:1.0416666666666667;" width="206.25" x="331.25" y="1000.6042"/><rect fill="url(#g1wowrmjdznjo50)" height="34.759" rx="4.1667" ry="4.1667" style="stroke:url(#g1wowrmjdznjo50);stroke-width:1.0416666666666667;" width="206.25" x="331.25" y="1000.6042"/><rect fill="url(#g1wowrmjdznjo50)" height="4.1667" style="stroke:url(#g1wowrmjdznjo50);stroke-width:1.0416666666666667;" width="206.25" x="331.25" y="1031.1965"/><rect codeLine="83" fill="none" height="221.8221" id="FoodConsumption" rx="4.1667" ry="4.1667" style="stroke:#2FA4E7;stroke-width:1.0416666666666667;" width="206.25" x="331.25" y="1000.6042"/><ellipse cx="372.5521" cy="1017.9837" fill="none" rx="10.4167" ry="10.4167" style="stroke:#2683B9;stroke-width:1.0416666666666667;"/><path d="M374.4625,1022.4087 Q374.0352,1022.6284 373.5653,1022.7383 Q373.0953,1022.8482 372.5765,1022.8482 Q370.7332,1022.8482 369.7628,1021.6336 Q368.7923,1020.419 368.7923,1018.1241 Q368.7923,1015.823 369.7628,1014.6084 Q370.7332,1013.3938 372.5765,1013.3938 Q373.0953,1013.3938 373.5714,1013.5037 Q374.0474,1013.6136 374.4625,1013.8333 L374.4625,1015.8352 Q373.9986,1015.408 373.5622,1015.2096 Q373.1258,1015.0113 372.6619,1015.0113 Q371.6732,1015.0113 371.1696,1015.7956 Q370.6661,1016.5799 370.6661,1018.1241 Q370.6661,1019.6621 371.1696,1020.4464 Q371.6732,1021.2307 372.6619,1021.2307 Q373.1258,1021.2307 373.5622,1021.0324 Q373.9986,1020.834 374.4625,1020.4068 Z " fill="#2FA4E7"/><text fill="#343A40" font-family="Verdana" font-size="11.4583" lengthAdjust="spacing" textLength="105.2083" x="397.2396" y="1022.5407">FoodConsumption</text><line style="stroke:#2FA4E7;stroke-width:1.0416666666666667;" x1="332.2917" x2="536.4583" y1="1035.3632" y2="1035.3632"/><ellipse cx="342.7083" cy="1053.2635" fill="none" rx="3.125" ry="3.125" style="stroke:#2683B9;stroke-width:1.0416666666666667;"/><text fill="#343A40" font-family="Verdana" font-size="11.4583" lengthAdjust="spacing" textLength="34.375" x="356.25" y="1056.2581">id: int</text><ellipse cx="342.7083" cy="1077.6059" fill="none" rx="3.125" ry="3.125" style="stroke:#2683B9;stroke-width:1.0416666666666667;"/><text fill="#343A40" font-family="Verdana" font-size="11.4583" lengthAdjust="spacing" textLength="81.25" x="356.25" y="1080.6004">animal_id: int</text><ellipse cx="342.7083" cy="1101.9482" fill="none" rx="3.125" ry="3.125" style="stroke:#2683B9;stroke-width:1.0416666666666667;"/><text fill="#343A40" font-family="Verdana" font-size="11.4583" lengthAdjust="spacing" textLength="68.75" x="356.25" y="1104.9427">food: string</text><ellipse cx="342.7083" cy="1126.2906" fill="none" rx="3.125" ry="3.125" style="stroke:#2683B9;stroke-width:1.0416666666666667;"/><text fill="#343A40" font-family="Verdana" font-size="11.4583" lengthAdjust="spacing" textLength="71.875" x="356.25" y="1129.2851">quantity: int</text><ellipse cx="342.7083" cy="1150.6329" fill="none" rx="3.125" ry="3.125" style="stroke:#2683B9;stroke-width:1.0416666666666667;"/><text fill="#343A40" font-family="Verdana" font-size="11.4583" lengthAdjust="spacing" textLength="169.7917" x="356.25" y="1153.6274">consumption_date: datetime</text><ellipse cx="342.7083" cy="1174.9753" fill="none" rx="3.125" ry="3.125" style="stroke:#2683B9;stroke-width:1.0416666666666667;"/><text fill="#343A40" font-family="Verdana" font-size="11.4583" lengthAdjust="spacing" textLength="125" x="356.25" y="1177.9698">created_at: datetime</text><ellipse cx="342.7083" cy="1199.3176" fill="none" rx="3.125" ry="3.125" style="stroke:#2683B9;stroke-width:1.0416666666666667;"/><text fill="#343A40" font-family="Verdana" font-size="11.4583" lengthAdjust="spacing" textLength="128.125" x="356.25" y="1202.3121">updated_at: datetime</text><line style="stroke:#2FA4E7;stroke-width:1.0416666666666667;" x1="332.2917" x2="536.4583" y1="1214.0929" y2="1214.0929"/></g><!--link Users to UserRole--><g id="link_Users_UserRole"><path codeLine="93" d="M643.4063,152.9583 C675.2917,152.9583 687.4271,152.9583 711.5521,152.9583 " fill="none" id="Users-to-UserRole" style="stroke:#2FA4E7;stroke-width:3.125;"/><polygon fill="none" points="730.3021,152.9583,711.5521,146.7083,711.5521,159.2083,730.3021,152.9583" style="stroke:#2FA4E7;stroke-width:3.125;"/><text fill="#343A40" font-family="Verdana" font-size="12.5" lengthAdjust="spacing" textLength="38.5417" x="667.7083" y="141.5671">a_role</text><text fill="#343A40" font-family="Verdana" font-size="12.5" lengthAdjust="spacing" textLength="8.3333" x="656.6703" y="171.3138">1</text></g><!--link Habitats to Animals--><g id="link_Habitats_Animals"><path codeLine="94" d="M260.6146,575.7083 C255.3021,585.9583 250.2708,596.3542 245.8333,606.5208 C237.7604,625.0104 230.3229,645.0313 223.6771,664.7708 " fill="none" id="Habitats-Animals" style="stroke:#2FA4E7;stroke-width:3.125;"/><polygon fill="#343A40" points="248.4038,624.2154,253.5536,618.1912,249.0291,616.3147,248.4038,624.2154" style="stroke:#343A40;stroke-width:1.0416666666666667;"/><text fill="#343A40" font-family="Verdana" font-size="12.5" lengthAdjust="spacing" textLength="48.9583" x="264.5833" y="625.338">possede</text><text fill="#343A40" font-family="Verdana" font-size="12.5" lengthAdjust="spacing" textLength="8.3333" x="242.2528" y="601.3575">1</text><text fill="#343A40" font-family="Verdana" font-size="12.5" lengthAdjust="spacing" textLength="25" x="194.5184" y="648.8747">0..*</text></g><!--link Users to VetReports--><g id="link_Users_VetReports"><path codeLine="95" d="M306.5521,218.4062 C237.8854,254.1458 165.875,306.1458 128.125,377.7917 C17.375,587.9583 53.1458,881.0833 80.6771,1024.5208 " fill="none" id="Users-VetReports" style="stroke:#2FA4E7;stroke-width:3.125;"/><polygon fill="#343A40" points="63.4591,624.3788,67.8511,617.7816,63.1346,616.46,63.4591,624.3788" style="stroke:#343A40;stroke-width:1.0416666666666667;"/><text fill="#343A40" font-family="Verdana" font-size="12.5" lengthAdjust="spacing" textLength="37.5" x="79.1667" y="625.338">redige</text><text fill="#343A40" font-family="Verdana" font-size="12.5" lengthAdjust="spacing" textLength="8.3333" x="284.9528" y="213.5946">1</text><text fill="#343A40" font-family="Verdana" font-size="12.5" lengthAdjust="spacing" textLength="25" x="47.2864" y="1008.772">0..*</text></g><!--link Animals to VetReports--><g id="link_Animals_VetReports"><path codeLine="96" d="M155.4583,911.4375 C144.9271,949.2396 133.5625,990.0313 123.875,1024.7917 " fill="none" id="Animals-VetReports" style="stroke:#2FA4E7;stroke-width:3.125;"/><polygon fill="#343A40" points="147.84,960.1304,152.2223,953.5268,147.5038,952.2121,147.84,960.1304" style="stroke:#343A40;stroke-width:1.0416666666666667;"/><text fill="#343A40" font-family="Verdana" font-size="12.5" lengthAdjust="spacing" textLength="43.75" x="163.5417" y="961.088">detient</text><text fill="#343A40" font-family="Verdana" font-size="12.5" lengthAdjust="spacing" textLength="8.3333" x="139.4018" y="937.0931">1</text><text fill="#343A40" font-family="Verdana" font-size="12.5" lengthAdjust="spacing" textLength="25" x="94.2159" y="1008.757">0..*</text></g><!--link Habitats to Images--><g id="link_Habitats_Images"><path codeLine="97" d="M350.2083,575.3854 C357.2813,594.9688 365.3021,615.1771 373.9583,633.6042 C384.5313,656.125 397.5521,679.5417 410.4583,701.0938 " fill="none" id="Habitats-Images" style="stroke:#2FA4E7;stroke-width:3.125;"/><polygon fill="#343A40" points="379.9259,624.1241,378.8766,616.2683,374.4595,618.3854,379.9259,624.1241" style="stroke:#343A40;stroke-width:1.0416666666666667;"/><text fill="#343A40" font-family="Verdana" font-size="12.5" lengthAdjust="spacing" textLength="48.9583" x="392.7083" y="625.338">possede</text><text fill="#343A40" font-family="Verdana" font-size="12.5" lengthAdjust="spacing" textLength="8.3333" x="338.2119" y="601.3608">1</text><text fill="#343A40" font-family="Verdana" font-size="12.5" lengthAdjust="spacing" textLength="25" x="373.8978" y="685.3575">0..*</text></g><!--link Animals to Images--><g id="link_Animals_Images"><path codeLine="98" d="M275.3542,787.9375 C310.0104,787.9375 349.8333,787.9375 384.1458,787.9375 " fill="none" id="Animals-Images" style="stroke:#2FA4E7;stroke-width:3.125;"/><polygon fill="#343A40" points="301.0417,771.575,293.5041,769.1259,293.5041,774.0241,301.0417,771.575" style="stroke:#343A40;stroke-width:1.0416666666666667;"/><text fill="#343A40" font-family="Verdana" font-size="12.5" lengthAdjust="spacing" textLength="48.9583" x="311.4583" y="776.5463">possede</text><text fill="#343A40" font-family="Verdana" font-size="12.5" lengthAdjust="spacing" textLength="8.3333" x="288.4418" y="806.7734">1</text><text fill="#343A40" font-family="Verdana" font-size="12.5" lengthAdjust="spacing" textLength="25" x="345.9505" y="806.7328">0..*</text></g><!--link Users to Images--><g id="link_Users_Images"><path codeLine="99" d="M473.2292,288.6042 C471.5833,413.2813 469.1979,594.9479 467.8021,701.0208 " fill="none" id="Users-Images" style="stroke:#2FA4E7;stroke-width:3.125;"/><polygon fill="#343A40" points="477.0285,481.0017,479.5766,473.497,474.6788,473.4326,477.0285,481.0017" style="stroke:#343A40;stroke-width:1.0416666666666667;"/><text fill="#343A40" font-family="Verdana" font-size="12.5" lengthAdjust="spacing" textLength="48.9583" x="491.6667" y="481.8067">possede</text><text fill="#343A40" font-family="Verdana" font-size="12.5" lengthAdjust="spacing" textLength="8.3333" x="459.078" y="314.4978">1</text><text fill="#343A40" font-family="Verdana" font-size="12.5" lengthAdjust="spacing" textLength="25" x="436.1695" y="685.2783">0..*</text></g><!--link Users to Services--><g id="link_Users_Services"><path codeLine="100" d="M604.9167,288.5 C613.9896,298.8333 622.8646,309.2188 631.25,319.4583 C649.3333,341.5417 667.7292,366.3958 684.1875,389.6667 " fill="none" id="Users-Services" style="stroke:#2FA4E7;stroke-width:3.125;"/><polygon fill="#343A40" points="657.7782,336.5839,655.057,329.1402,651.2015,332.1613,657.7782,336.5839" style="stroke:#343A40;stroke-width:1.0416666666666667;"/><text fill="#343A40" font-family="Verdana" font-size="12.5" lengthAdjust="spacing" textLength="27.0833" x="669.7917" y="338.2755">gere</text><text fill="#343A40" font-family="Verdana" font-size="12.5" lengthAdjust="spacing" textLength="8.3333" x="597.9671" y="314.3879">1</text><text fill="#343A40" font-family="Verdana" font-size="12.5" lengthAdjust="spacing" textLength="25" x="647.5177" y="373.9286">0..*</text></g><!--link Users to OpeningHours--><g id="link_Users_OpeningHours"><path codeLine="101" d="M643.2708,251.5208 C721.9896,298.1771 806.1146,349.8542 841.6667,377.7917 C851.0104,385.1354 860.4063,393.3021 869.4792,401.6771 " fill="none" id="Users-OpeningHours" style="stroke:#2FA4E7;stroke-width:3.125;"/><polygon fill="#343A40" points="799.3048,335.6085,794.3793,329.3994,791.6704,333.4804,799.3048,335.6085" style="stroke:#343A40;stroke-width:1.0416666666666667;"/><text fill="#343A40" font-family="Verdana" font-size="12.5" lengthAdjust="spacing" textLength="27.0833" x="810.4167" y="338.2755">gere</text><text fill="#343A40" font-family="Verdana" font-size="12.5" lengthAdjust="spacing" textLength="8.3333" x="656.5287" y="248.2096">1</text><text fill="#343A40" font-family="Verdana" font-size="12.5" lengthAdjust="spacing" textLength="25" x="830.6268" y="385.8834">0..*</text></g><!--link Users to Habitats--><g id="link_Users_Habitats"><path codeLine="102" d="M410.0729,288.4792 C395.625,318.4167 380.5625,349.6042 366.9896,377.7396 " fill="none" id="Users-Habitats" style="stroke:#2FA4E7;stroke-width:3.125;"/><polygon fill="#343A40" points="396.1055,337.0566,401.5876,331.333,397.1763,329.2038,396.1055,337.0566" style="stroke:#343A40;stroke-width:1.0416666666666667;"/><text fill="#343A40" font-family="Verdana" font-size="12.5" lengthAdjust="spacing" textLength="27.0833" x="412.5" y="338.2755">gere</text><text fill="#343A40" font-family="Verdana" font-size="12.5" lengthAdjust="spacing" textLength="8.3333" x="392.4679" y="314.366">1</text><text fill="#343A40" font-family="Verdana" font-size="12.5" lengthAdjust="spacing" textLength="25" x="339.1312" y="361.6707">0..*</text></g><!--link Users to Habitats--><g id="link_Users_Habitats"><path codeLine="107" d="M306.3229,276.2292 C295.6146,289.6875 286.2917,304.1146 279.1667,319.4583 C270.7396,337.6146 270.1875,357.8021 273.7708,377.4688 " fill="none" id="Users-Habitats-1" style="stroke:#2FA4E7;stroke-width:3.125;"/><polygon fill="#343A40" points="282.0579,337.2708,286.6967,330.8447,282.0336,329.3454,282.0579,337.2708" style="stroke:#343A40;stroke-width:1.0416666666666667;"/><text fill="#343A40" font-family="Verdana" font-size="12.5" lengthAdjust="spacing" textLength="71.875" x="297.9167" y="338.2755">commenter</text><text fill="#343A40" font-family="Verdana" font-size="12.5" lengthAdjust="spacing" textLength="8.3333" x="284.7133" y="274.0376">1</text><text fill="#343A40" font-family="Verdana" font-size="12.5" lengthAdjust="spacing" textLength="25" x="238.6832" y="361.726">0..*</text></g><!--link Users to Animals--><g id="link_Users_Animals"><path codeLine="103" d="M306.3021,235.7083 C251.875,271.25 197.8646,318.5313 167.7083,377.7917 C122.7083,466.2292 133.25,579.7604 152.1563,664.7813 " fill="none" id="Users-Animals" style="stroke:#2FA4E7;stroke-width:3.125;"/><polygon fill="#343A40" points="170.4663,480.7567,175.3196,474.491,170.7098,472.835,170.4663,480.7567" style="stroke:#343A40;stroke-width:1.0416666666666667;"/><text fill="#343A40" font-family="Verdana" font-size="12.5" lengthAdjust="spacing" textLength="27.0833" x="186.4583" y="481.8067">gere</text><text fill="#343A40" font-family="Verdana" font-size="12.5" lengthAdjust="spacing" textLength="8.3333" x="284.6915" y="231.6806">1</text><text fill="#343A40" font-family="Verdana" font-size="12.5" lengthAdjust="spacing" textLength="25" x="118.4158" y="648.8858">0..*</text></g><!--link Users to Testimonials--><g id="link_Users_Testimonials"><path codeLine="104" d="M643.625,257.1667 C666.2917,268.6771 689.625,279.4063 712.5,288.2083 C771.8333,311.0417 790.6875,302.9583 852.0833,319.4583 C935.5104,341.8854 963.375,333.4271 1037.5,377.7917 C1043.3333,381.2813 1049.0833,385.1771 1054.7083,389.3542 " fill="none" id="Users-Testimonials" style="stroke:#2FA4E7;stroke-width:3.125;"/><polygon fill="#343A40" points="978.9666,334.5797,972.5406,329.9407,971.0412,334.6038,978.9666,334.5797" style="stroke:#343A40;stroke-width:1.0416666666666667;"/><text fill="#343A40" font-family="Verdana" font-size="12.5" lengthAdjust="spacing" textLength="101.0417" x="989.5833" y="338.2755">valider_invalider</text><text fill="#343A40" font-family="Verdana" font-size="12.5" lengthAdjust="spacing" textLength="8.3333" x="656.899" y="280.2441">1</text><text fill="#343A40" font-family="Verdana" font-size="12.5" lengthAdjust="spacing" textLength="25" x="1016.8055" y="374.5214">0..*</text></g><!--link Animals to FoodConsumption--><g id="link_Animals_FoodConsumption"><path codeLine="105" d="M275.1979,901.4271 C299.6042,933.4688 326.1563,968.3438 350.4583,1000.2604 " fill="none" id="Animals-FoodConsumption" style="stroke:#2FA4E7;stroke-width:3.125;"/><polygon fill="#343A40" points="333.7743,959.4316,331.1563,951.951,327.2593,954.9185,333.7743,959.4316" style="stroke:#343A40;stroke-width:1.0416666666666667;"/><text fill="#343A40" font-family="Verdana" font-size="12.5" lengthAdjust="spacing" textLength="67.7083" x="345.8333" y="961.088">consomme</text><text fill="#343A40" font-family="Verdana" font-size="12.5" lengthAdjust="spacing" textLength="8.3333" x="288.5694" y="902.9076">1</text><text fill="#343A40" font-family="Verdana" font-size="12.5" lengthAdjust="spacing" textLength="25" x="313.1045" y="984.3558">0..*</text></g><!--link Users to FoodConsumption--><g id="link_Users_FoodConsumption"><path codeLine="106" d="M530.6458,288.5417 C540.5313,317.5208 549.4792,348.3229 555.2083,377.7917 C600.4479,610.4792 635.0938,684.0625 566.6667,911.0208 C557.3125,942.0521 541.375,972.6875 523.7396,1000.2917 " fill="none" id="Users-FoodConsumption" style="stroke:#2FA4E7;stroke-width:3.125;"/><polygon fill="#343A40" points="607.2512,624.5331,609.7734,617.0197,604.8754,616.9722,607.2512,624.5331" style="stroke:#343A40;stroke-width:1.0416666666666667;"/><text fill="#343A40" font-family="Verdana" font-size="12.5" lengthAdjust="spacing" textLength="67.7083" x="621.875" y="625.338">enregistrer</text><text fill="#343A40" font-family="Verdana" font-size="12.5" lengthAdjust="spacing" textLength="8.3333" x="519.6346" y="314.4319">1</text><text fill="#343A40" font-family="Verdana" font-size="12.5" lengthAdjust="spacing" textLength="25" x="498.5696" y="984.3892">0..*</text></g><!--SRC=[hLJ9Rjim4BthArZtqir1UzKXGD0wY86cBfmqG4y2BOwLWIbIvU8sNVuzGybMBKjqdIQ-c1g-cVTcuJnpjr02oy5u2LoDjNSI5IHsXQhYXfTimVDLORHNuhsMsh3dv_KlINB9hMLVB1ZBVYMCVgzHf0oLQpxesYbUGigiCwYAnhf4CsJs5APlhOZXkpQYQpLQ4YuGp-dKs783t878k4kPe9F3SdFZAn6vuPwILmvpihw0agFSyhnX-ymlKxRGMYP_aWIKBrlsJUPd7owdd-hJvFBpnzdNoQJ-k9bSD__Jg-drR1wycwfTWLbZ3iE5wzT1WCqDLWwrwbuyCEsMVrQ1eY0NsaUQ9_XTbqat7bc8iwT1QjkxQPak-08TTn6MM5wMNFPfT5bIjvuc_pE59PUHycE-whUWziDb69QUMaugZcsOLjPBLmV9SdfLReVvVxEv1ai6hJ2MKcN12zrJudhrH9kjqU8YFB1wtX-bQrho8ZBZ5NUtUot7d_04jRW1DuTAcyZ4yRhnMSVMLiB1ZqUodsjDQv9QNDQzFrh2alowvVZcEQqcTzVLkGsSYVfzTAKzN7Ipl4VlHcpy-_JlJaiPpyAIJTh7MqF6RFJsvEJLg7qzAJjbbROM1Eo6Qd4xlGXG0m8BIBRU1x62D59FOWesaxKhe1Fs06v8w96mTci7O05c6DNPhGUHRN87KRlLZe8wAo0WrroY09EXsfmYTT-VsE0R1Yrisq6c8GTG1WgayIMQVoQwMUG4lGS0]--></g></svg>