<?xml version="1.0" encoding="us-ascii" standalone="no"?><svg xmlns="http://www.w3.org/2000/svg" xmlns:xlink="http://www.w3.org/1999/xlink" contentStyleType="text/css" height="1735.4167px" preserveAspectRatio="none" style="width:1898px;height:1735px;background:#FFFFFF;" version="1.1" viewBox="0 0 1898 1735" width="1898.9583px" zoomAndPan="magnify"><defs/><g><rect fill="none" height="48.2361" id="_title" rx="4.1667" ry="4.1667" style="stroke:#BABDBF;stroke-width:1.0416666666666667;" width="343.75" x="800.2604" y="20.8333"/><text fill="#2FA4E7" font-family="Verdana" font-size="20.8333" font-weight="bold" lengthAdjust="spacing" textLength="320.8333" x="811.7188" y="53.2369">Processus nouveau visiteur</text><line style="stroke:#BABDBF;stroke-width:1.0416666666666667;stroke-dasharray:5.0,5.0;" x1="46.875" x2="46.875" y1="169.6777" y2="1637.4105"/><line style="stroke:#BABDBF;stroke-width:1.0416666666666667;stroke-dasharray:5.0,5.0;" x1="186.4583" x2="186.4583" y1="169.6777" y2="1637.4105"/><line style="stroke:#BABDBF;stroke-width:1.0416666666666667;stroke-dasharray:5.0,5.0;" x1="407.8125" x2="407.8125" y1="169.6777" y2="1637.4105"/><line style="stroke:#BABDBF;stroke-width:1.0416666666666667;stroke-dasharray:5.0,5.0;" x1="601.5625" x2="601.5625" y1="169.6777" y2="1637.4105"/><line style="stroke:#BABDBF;stroke-width:1.0416666666666667;stroke-dasharray:5.0,5.0;" x1="817.1875" x2="817.1875" y1="169.6777" y2="1637.4105"/><line style="stroke:#BABDBF;stroke-width:1.0416666666666667;stroke-dasharray:5.0,5.0;" x1="1001.5625" x2="1001.5625" y1="169.6777" y2="1637.4105"/><line style="stroke:#BABDBF;stroke-width:1.0416666666666667;stroke-dasharray:5.0,5.0;" x1="1171.3542" x2="1171.3542" y1="169.6777" y2="1637.4105"/><line style="stroke:#BABDBF;stroke-width:1.0416666666666667;stroke-dasharray:5.0,5.0;" x1="1346.3542" x2="1346.3542" y1="169.6777" y2="1637.4105"/><line style="stroke:#BABDBF;stroke-width:1.0416666666666667;stroke-dasharray:5.0,5.0;" x1="1517.7083" x2="1517.7083" y1="169.6777" y2="1637.4105"/><line style="stroke:#BABDBF;stroke-width:1.0416666666666667;stroke-dasharray:5.0,5.0;" x1="1676.0417" x2="1676.0417" y1="169.6777" y2="1637.4105"/><line style="stroke:#BABDBF;stroke-width:1.0416666666666667;stroke-dasharray:5.0,5.0;" x1="1851.5625" x2="1851.5625" y1="169.6777" y2="1637.4105"/><text fill="#2FA4E7" font-family="Verdana" font-size="12.5" lengthAdjust="spacing" textLength="46.875" x="20.8333" y="161.8449">Visiteur</text><ellipse cx="47.3958" cy="89.9028" fill="none" rx="8.3333" ry="8.3333" style="stroke:#2FA4E7;stroke-width:1.0416666666666667;"/><path d="M47.3958,98.2361 L47.3958,126.3611 M33.8542,106.5694 L60.9375,106.5694 M47.3958,126.3611 L33.8542,141.9861 M47.3958,126.3611 L60.9375,141.9861 " fill="none" style="stroke:#2FA4E7;stroke-width:1.0416666666666667;"/><text fill="#2FA4E7" font-family="Verdana" font-size="12.5" lengthAdjust="spacing" textLength="46.875" x="20.8333" y="1654.1443">Visiteur</text><ellipse cx="47.3958" cy="1671.3521" fill="none" rx="8.3333" ry="8.3333" style="stroke:#2FA4E7;stroke-width:1.0416666666666667;"/><path d="M47.3958,1679.6855 L47.3958,1707.8105 M33.8542,1688.0188 L60.9375,1688.0188 M47.3958,1707.8105 L33.8542,1723.4355 M47.3958,1707.8105 L60.9375,1723.4355 " fill="none" style="stroke:#2FA4E7;stroke-width:1.0416666666666667;"/><rect fill="none" height="40.1917" rx="4.1667" ry="4.1667" style="stroke:#2FA4E7;stroke-width:1.0416666666666667;" width="110.4167" x="131.25" y="128.4444"/><text fill="#2FA4E7" font-family="Verdana" font-size="12.5" lengthAdjust="spacing" textLength="85.4167" x="143.75" y="153.5116">Page d'accueil</text><rect fill="none" height="40.1917" rx="4.1667" ry="4.1667" style="stroke:#2FA4E7;stroke-width:1.0416666666666667;" width="110.4167" x="131.25" y="1636.3688"/><text fill="#2FA4E7" font-family="Verdana" font-size="12.5" lengthAdjust="spacing" textLength="85.4167" x="143.75" y="1661.436">Page d'accueil</text><rect fill="none" height="40.1917" rx="4.1667" ry="4.1667" style="stroke:#2FA4E7;stroke-width:1.0416666666666667;" width="98.9583" x="358.8542" y="128.4444"/><text fill="#2FA4E7" font-family="Verdana" font-size="12.5" lengthAdjust="spacing" textLength="73.9583" x="371.3542" y="153.5116">Les services</text><rect fill="none" height="40.1917" rx="4.1667" ry="4.1667" style="stroke:#2FA4E7;stroke-width:1.0416666666666667;" width="98.9583" x="358.8542" y="1636.3688"/><text fill="#2FA4E7" font-family="Verdana" font-size="12.5" lengthAdjust="spacing" textLength="73.9583" x="371.3542" y="1661.436">Les services</text><rect fill="none" height="40.1917" rx="4.1667" ry="4.1667" style="stroke:#2FA4E7;stroke-width:1.0416666666666667;" width="100" x="551.5625" y="128.4444"/><text fill="#2FA4E7" font-family="Verdana" font-size="12.5" lengthAdjust="spacing" textLength="75" x="564.0625" y="153.5116">Les habitats</text><rect fill="none" height="40.1917" rx="4.1667" ry="4.1667" style="stroke:#2FA4E7;stroke-width:1.0416666666666667;" width="100" x="551.5625" y="1636.3688"/><text fill="#2FA4E7" font-family="Verdana" font-size="12.5" lengthAdjust="spacing" textLength="75" x="564.0625" y="1661.436">Les habitats</text><rect fill="none" height="40.1917" rx="4.1667" ry="4.1667" style="stroke:#2FA4E7;stroke-width:1.0416666666666667;" width="104.1667" x="765.1042" y="128.4444"/><text fill="#2FA4E7" font-family="Verdana" font-size="12.5" lengthAdjust="spacing" textLength="79.1667" x="777.6042" y="153.5116">Les animaux</text><rect fill="none" height="40.1917" rx="4.1667" ry="4.1667" style="stroke:#2FA4E7;stroke-width:1.0416666666666667;" width="104.1667" x="765.1042" y="1636.3688"/><text fill="#2FA4E7" font-family="Verdana" font-size="12.5" lengthAdjust="spacing" textLength="79.1667" x="777.6042" y="1661.436">Les animaux</text><rect fill="none" height="40.1917" rx="4.1667" ry="4.1667" style="stroke:#2FA4E7;stroke-width:1.0416666666666667;" width="78.125" x="963.0208" y="128.4444"/><text fill="#2FA4E7" font-family="Verdana" font-size="12.5" lengthAdjust="spacing" textLength="53.125" x="975.5208" y="153.5116">A propos</text><rect fill="none" height="40.1917" rx="4.1667" ry="4.1667" style="stroke:#2FA4E7;stroke-width:1.0416666666666667;" width="78.125" x="963.0208" y="1636.3688"/><text fill="#2FA4E7" font-family="Verdana" font-size="12.5" lengthAdjust="spacing" textLength="53.125" x="975.5208" y="1661.436">A propos</text><rect fill="none" height="40.1917" rx="4.1667" ry="4.1667" style="stroke:#2FA4E7;stroke-width:1.0416666666666667;" width="72.9167" x="1134.8958" y="128.4444"/><text fill="#2FA4E7" font-family="Verdana" font-size="12.5" lengthAdjust="spacing" textLength="47.9167" x="1147.3958" y="153.5116">Contact</text><rect fill="none" height="40.1917" rx="4.1667" ry="4.1667" style="stroke:#2FA4E7;stroke-width:1.0416666666666667;" width="72.9167" x="1134.8958" y="1636.3688"/><text fill="#2FA4E7" font-family="Verdana" font-size="12.5" lengthAdjust="spacing" textLength="47.9167" x="1147.3958" y="1661.436">Contact</text><rect fill="none" height="40.1917" rx="4.1667" ry="4.1667" style="stroke:#2FA4E7;stroke-width:1.0416666666666667;" width="90.625" x="1301.5625" y="128.4444"/><text fill="#2FA4E7" font-family="Verdana" font-size="12.5" lengthAdjust="spacing" textLength="65.625" x="1314.0625" y="153.5116">Connexion</text><rect fill="none" height="40.1917" rx="4.1667" ry="4.1667" style="stroke:#2FA4E7;stroke-width:1.0416666666666667;" width="90.625" x="1301.5625" y="1636.3688"/><text fill="#2FA4E7" font-family="Verdana" font-size="12.5" lengthAdjust="spacing" textLength="65.625" x="1314.0625" y="1661.436">Connexion</text><rect fill="none" height="40.1917" rx="4.1667" ry="4.1667" style="stroke:#2FA4E7;stroke-width:1.0416666666666667;" width="47.9167" x="1493.75" y="128.4444"/><text fill="#2FA4E7" font-family="Verdana" font-size="12.5" lengthAdjust="spacing" textLength="22.9167" x="1506.25" y="153.5116">Zoo</text><rect fill="none" height="40.1917" rx="4.1667" ry="4.1667" style="stroke:#2FA4E7;stroke-width:1.0416666666666667;" width="47.9167" x="1493.75" y="1636.3688"/><text fill="#2FA4E7" font-family="Verdana" font-size="12.5" lengthAdjust="spacing" textLength="22.9167" x="1506.25" y="1661.436">Zoo</text><rect fill="none" height="40.1917" rx="4.1667" ry="4.1667" style="stroke:#2FA4E7;stroke-width:1.0416666666666667;" width="81.25" x="1635.4167" y="128.4444"/><text fill="#2FA4E7" font-family="Verdana" font-size="12.5" lengthAdjust="spacing" textLength="56.25" x="1647.9167" y="153.5116">Selection</text><rect fill="none" height="40.1917" rx="4.1667" ry="4.1667" style="stroke:#2FA4E7;stroke-width:1.0416666666666667;" width="81.25" x="1635.4167" y="1636.3688"/><text fill="#2FA4E7" font-family="Verdana" font-size="12.5" lengthAdjust="spacing" textLength="56.25" x="1647.9167" y="1661.436">Selection</text><rect fill="none" height="40.1917" rx="4.1667" ry="4.1667" style="stroke:#2FA4E7;stroke-width:1.0416666666666667;" width="71.875" x="1816.1458" y="128.4444"/><text fill="#2FA4E7" font-family="Verdana" font-size="12.5" lengthAdjust="spacing" textLength="46.875" x="1828.6458" y="153.5116">Visiteur</text><rect fill="none" height="40.1917" rx="4.1667" ry="4.1667" style="stroke:#2FA4E7;stroke-width:1.0416666666666667;" width="71.875" x="1816.1458" y="1636.3688"/><text fill="#2FA4E7" font-family="Verdana" font-size="12.5" lengthAdjust="spacing" textLength="46.875" x="1828.6458" y="1661.436">Visiteur</text><polygon fill="#2FA4E7" points="197.9167,207.7861,187.5,211.9527,197.9167,216.1194,193.75,211.9527" style="stroke:#2FA4E7;stroke-width:1.0416666666666667;"/><line style="stroke:#2FA4E7;stroke-width:3.125;" x1="191.6667" x2="1851.0417" y1="211.9527" y2="211.9527"/><text fill="#343A40" font-family="Verdana" font-size="12.5" lengthAdjust="spacing" textLength="164.5833" x="209.375" y="202.0365">Arrive sur la page d'accueil</text><polygon fill="#2FA4E7" points="197.9167,247.9777,187.5,252.1444,197.9167,256.311,193.75,252.1444" style="stroke:#2FA4E7;stroke-width:1.0416666666666667;"/><line style="stroke:#2FA4E7;stroke-width:3.125;" x1="191.6667" x2="1851.0417" y1="252.1444" y2="252.1444"/><text fill="#343A40" font-family="Verdana" font-size="12.5" lengthAdjust="spacing" textLength="202.0833" x="209.375" y="242.2282">Navigue vers la liste des services</text><polygon fill="#2FA4E7" points="395.8333,288.1694,406.25,292.336,395.8333,296.5027,400,292.336" style="stroke:#2FA4E7;stroke-width:1.0416666666666667;"/><line style="stroke:#2FA4E7;stroke-width:3.125;" x1="186.4583" x2="402.0833" y1="292.336" y2="292.336"/><text fill="#343A40" font-family="Verdana" font-size="12.5" lengthAdjust="spacing" textLength="186.4583" x="198.9583" y="282.4198">Arrive sur la page des services</text><polygon fill="#2FA4E7" points="1687.5,328.361,1677.0833,332.5277,1687.5,336.6943,1683.3333,332.5277" style="stroke:#2FA4E7;stroke-width:1.0416666666666667;"/><line style="stroke:#2FA4E7;stroke-width:3.125;" x1="1681.25" x2="1851.0417" y1="332.5277" y2="332.5277"/><text fill="#343A40" font-family="Verdana" font-size="12.5" lengthAdjust="spacing" textLength="139.5833" x="1698.9583" y="322.6115">S&#233;lectionne un service</text><polygon fill="#2FA4E7" points="419.7917,368.5527,409.375,372.7193,419.7917,376.886,415.625,372.7193" style="stroke:#2FA4E7;stroke-width:1.0416666666666667;"/><line style="stroke:#2FA4E7;stroke-width:3.125;" x1="413.5417" x2="1675" y1="372.7193" y2="372.7193"/><text fill="#343A40" font-family="Verdana" font-size="12.5" lengthAdjust="spacing" textLength="109.375" x="431.25" y="362.8031">Valide la s&#233;lection</text><polygon fill="#2FA4E7" points="419.7917,408.7443,409.375,412.911,419.7917,417.0776,415.625,412.911" style="stroke:#2FA4E7;stroke-width:1.0416666666666667;"/><line style="stroke:#2FA4E7;stroke-width:3.125;" x1="413.5417" x2="1851.0417" y1="412.911" y2="412.911"/><text fill="#343A40" font-family="Verdana" font-size="12.5" lengthAdjust="spacing" textLength="121.875" x="431.25" y="402.9948">Consulte un service</text><polygon fill="#2FA4E7" points="197.9167,448.936,187.5,453.1026,197.9167,457.2693,193.75,453.1026" style="stroke:#2FA4E7;stroke-width:1.0416666666666667;"/><line style="stroke:#2FA4E7;stroke-width:3.125;" x1="191.6667" x2="1851.0417" y1="453.1026" y2="453.1026"/><text fill="#343A40" font-family="Verdana" font-size="12.5" lengthAdjust="spacing" textLength="172.9167" x="209.375" y="443.1864">Retourne &#224; la page d'accueil</text><polygon fill="#2FA4E7" points="197.9167,489.1276,187.5,493.2943,197.9167,497.4609,193.75,493.2943" style="stroke:#2FA4E7;stroke-width:1.0416666666666667;"/><line style="stroke:#2FA4E7;stroke-width:3.125;" x1="191.6667" x2="1851.0417" y1="493.2943" y2="493.2943"/><text fill="#343A40" font-family="Verdana" font-size="12.5" lengthAdjust="spacing" textLength="203.125" x="209.375" y="483.3781">Navigue vers la liste des habitats</text><polygon fill="#2FA4E7" points="589.0625,529.3193,599.4792,533.4859,589.0625,537.6526,593.2292,533.4859" style="stroke:#2FA4E7;stroke-width:1.0416666666666667;"/><line style="stroke:#2FA4E7;stroke-width:3.125;" x1="186.4583" x2="595.3125" y1="533.4859" y2="533.4859"/><text fill="#343A40" font-family="Verdana" font-size="12.5" lengthAdjust="spacing" textLength="187.5" x="198.9583" y="523.5697">Arrive sur la page des habitats</text><polygon fill="#2FA4E7" points="1687.5,569.5109,1677.0833,573.6776,1687.5,577.8442,1683.3333,573.6776" style="stroke:#2FA4E7;stroke-width:1.0416666666666667;"/><line style="stroke:#2FA4E7;stroke-width:3.125;" x1="1681.25" x2="1851.0417" y1="573.6776" y2="573.6776"/><text fill="#343A40" font-family="Verdana" font-size="12.5" lengthAdjust="spacing" textLength="140.625" x="1698.9583" y="563.7614">S&#233;lectionne un habitat</text><polygon fill="#2FA4E7" points="613.0208,609.7026,602.6042,613.8692,613.0208,618.0359,608.8542,613.8692" style="stroke:#2FA4E7;stroke-width:1.0416666666666667;"/><line style="stroke:#2FA4E7;stroke-width:3.125;" x1="606.7708" x2="1675" y1="613.8692" y2="613.8692"/><text fill="#343A40" font-family="Verdana" font-size="12.5" lengthAdjust="spacing" textLength="109.375" x="624.4792" y="603.953">Valide la s&#233;lection</text><polygon fill="#2FA4E7" points="613.0208,649.8942,602.6042,654.0609,613.0208,658.2275,608.8542,654.0609" style="stroke:#2FA4E7;stroke-width:1.0416666666666667;"/><line style="stroke:#2FA4E7;stroke-width:3.125;" x1="606.7708" x2="1851.0417" y1="654.0609" y2="654.0609"/><text fill="#343A40" font-family="Verdana" font-size="12.5" lengthAdjust="spacing" textLength="122.9167" x="624.4792" y="644.1447">Consulte un habitat</text><polygon fill="#2FA4E7" points="804.6875,690.0859,815.1042,694.2525,804.6875,698.4192,808.8542,694.2525" style="stroke:#2FA4E7;stroke-width:1.0416666666666667;"/><line style="stroke:#2FA4E7;stroke-width:3.125;" x1="601.5625" x2="810.9375" y1="694.2525" y2="694.2525"/><text fill="#343A40" font-family="Verdana" font-size="12.5" lengthAdjust="spacing" textLength="180.2083" x="614.0625" y="684.3363">Liste les animaux par habitat</text><polygon fill="#2FA4E7" points="1687.5,730.2775,1677.0833,734.4442,1687.5,738.6108,1683.3333,734.4442" style="stroke:#2FA4E7;stroke-width:1.0416666666666667;"/><line style="stroke:#2FA4E7;stroke-width:3.125;" x1="1681.25" x2="1851.0417" y1="734.4442" y2="734.4442"/><text fill="#343A40" font-family="Verdana" font-size="12.5" lengthAdjust="spacing" textLength="138.5417" x="1698.9583" y="724.528">S&#233;lectionne un animal</text><polygon fill="#2FA4E7" points="828.6458,770.4692,818.2292,774.6358,828.6458,778.8025,824.4792,774.6358" style="stroke:#2FA4E7;stroke-width:1.0416666666666667;"/><line style="stroke:#2FA4E7;stroke-width:3.125;" x1="822.3958" x2="1675" y1="774.6358" y2="774.6358"/><text fill="#343A40" font-family="Verdana" font-size="12.5" lengthAdjust="spacing" textLength="120.8333" x="840.1042" y="764.7196">Consulte un animal</text><polygon fill="#2FA4E7" points="197.9167,810.6608,187.5,814.8275,197.9167,818.9941,193.75,814.8275" style="stroke:#2FA4E7;stroke-width:1.0416666666666667;"/><line style="stroke:#2FA4E7;stroke-width:3.125;" x1="191.6667" x2="1851.0417" y1="814.8275" y2="814.8275"/><text fill="#343A40" font-family="Verdana" font-size="12.5" lengthAdjust="spacing" textLength="172.9167" x="209.375" y="804.9113">Retourne &#224; la page d'accueil</text><polygon fill="#2FA4E7" points="197.9167,850.8525,187.5,855.0191,197.9167,859.1858,193.75,855.0191" style="stroke:#2FA4E7;stroke-width:1.0416666666666667;"/><line style="stroke:#2FA4E7;stroke-width:3.125;" x1="191.6667" x2="1851.0417" y1="855.0191" y2="855.0191"/><text fill="#343A40" font-family="Verdana" font-size="12.5" lengthAdjust="spacing" textLength="207.2917" x="209.375" y="845.1029">Navigue vers la liste des animaux</text><polygon fill="#2FA4E7" points="804.6875,891.0441,815.1042,895.2108,804.6875,899.3774,808.8542,895.2108" style="stroke:#2FA4E7;stroke-width:1.0416666666666667;"/><line style="stroke:#2FA4E7;stroke-width:3.125;" x1="186.4583" x2="810.9375" y1="895.2108" y2="895.2108"/><text fill="#343A40" font-family="Verdana" font-size="12.5" lengthAdjust="spacing" textLength="191.6667" x="198.9583" y="885.2946">Arrive sur la page des animaux</text><polygon fill="#2FA4E7" points="1687.5,931.2358,1677.0833,935.4024,1687.5,939.5691,1683.3333,935.4024" style="stroke:#2FA4E7;stroke-width:1.0416666666666667;"/><line style="stroke:#2FA4E7;stroke-width:3.125;" x1="1681.25" x2="1851.0417" y1="935.4024" y2="935.4024"/><text fill="#343A40" font-family="Verdana" font-size="12.5" lengthAdjust="spacing" textLength="138.5417" x="1698.9583" y="925.4862">S&#233;lectionne un animal</text><polygon fill="#2FA4E7" points="828.6458,971.4274,818.2292,975.5941,828.6458,979.7607,824.4792,975.5941" style="stroke:#2FA4E7;stroke-width:1.0416666666666667;"/><line style="stroke:#2FA4E7;stroke-width:3.125;" x1="822.3958" x2="1675" y1="975.5941" y2="975.5941"/><text fill="#343A40" font-family="Verdana" font-size="12.5" lengthAdjust="spacing" textLength="109.375" x="840.1042" y="965.6779">Valide la s&#233;lection</text><polygon fill="#2FA4E7" points="828.6458,1011.6191,818.2292,1015.7857,828.6458,1019.9524,824.4792,1015.7857" style="stroke:#2FA4E7;stroke-width:1.0416666666666667;"/><line style="stroke:#2FA4E7;stroke-width:3.125;" x1="822.3958" x2="1851.0417" y1="1015.7857" y2="1015.7857"/><text fill="#343A40" font-family="Verdana" font-size="12.5" lengthAdjust="spacing" textLength="120.8333" x="840.1042" y="1005.8695">Consulte un animal</text><polygon fill="#2FA4E7" points="197.9167,1051.8107,187.5,1055.9774,197.9167,1060.144,193.75,1055.9774" style="stroke:#2FA4E7;stroke-width:1.0416666666666667;"/><line style="stroke:#2FA4E7;stroke-width:3.125;" x1="191.6667" x2="1851.0417" y1="1055.9774" y2="1055.9774"/><text fill="#343A40" font-family="Verdana" font-size="12.5" lengthAdjust="spacing" textLength="172.9167" x="209.375" y="1046.0612">Retourne &#224; la page d'accueil</text><polygon fill="#2FA4E7" points="197.9167,1092.0024,187.5,1096.169,197.9167,1100.3357,193.75,1096.169" style="stroke:#2FA4E7;stroke-width:1.0416666666666667;"/><line style="stroke:#2FA4E7;stroke-width:3.125;" x1="191.6667" x2="1851.0417" y1="1096.169" y2="1096.169"/><text fill="#343A40" font-family="Verdana" font-size="12.5" lengthAdjust="spacing" textLength="159.375" x="209.375" y="1086.2528">Consulte la page A propos</text><polygon fill="#2FA4E7" points="989.5833,1132.194,1000,1136.3607,989.5833,1140.5273,993.75,1136.3607" style="stroke:#2FA4E7;stroke-width:1.0416666666666667;"/><line style="stroke:#2FA4E7;stroke-width:3.125;" x1="186.4583" x2="995.8333" y1="1136.3607" y2="1136.3607"/><text fill="#343A40" font-family="Verdana" font-size="12.5" lengthAdjust="spacing" textLength="146.875" x="198.9583" y="1126.4445">Affiche la page A propos</text><polygon fill="#2FA4E7" points="197.9167,1172.3857,187.5,1176.5523,197.9167,1180.719,193.75,1176.5523" style="stroke:#2FA4E7;stroke-width:1.0416666666666667;"/><line style="stroke:#2FA4E7;stroke-width:3.125;" x1="191.6667" x2="1851.0417" y1="1176.5523" y2="1176.5523"/><text fill="#343A40" font-family="Verdana" font-size="12.5" lengthAdjust="spacing" textLength="172.9167" x="209.375" y="1166.6361">Retourne &#224; la page d'accueil</text><polygon fill="#2FA4E7" points="1182.8125,1212.5773,1172.3958,1216.744,1182.8125,1220.9106,1178.6458,1216.744" style="stroke:#2FA4E7;stroke-width:1.0416666666666667;"/><line style="stroke:#2FA4E7;stroke-width:3.125;" x1="1176.5625" x2="1851.0417" y1="1216.744" y2="1216.744"/><text fill="#343A40" font-family="Verdana" font-size="12.5" lengthAdjust="spacing" textLength="196.875" x="1194.2708" y="1206.8278">Navigue vers la page de contact</text><polygon fill="#2FA4E7" points="1182.8125,1252.769,1172.3958,1256.9356,1182.8125,1261.1023,1178.6458,1256.9356" style="stroke:#2FA4E7;stroke-width:1.0416666666666667;"/><line style="stroke:#2FA4E7;stroke-width:3.125;" x1="1176.5625" x2="1851.0417" y1="1256.9356" y2="1256.9356"/><text fill="#343A40" font-family="Verdana" font-size="12.5" lengthAdjust="spacing" textLength="197.9167" x="1194.2708" y="1247.0194">Remplit le formulaire de contact</text><polygon fill="#2FA4E7" points="1505.2083,1292.9606,1515.625,1297.1273,1505.2083,1301.2939,1509.375,1297.1273" style="stroke:#2FA4E7;stroke-width:1.0416666666666667;"/><line style="stroke:#2FA4E7;stroke-width:3.125;" x1="1171.3542" x2="1511.4583" y1="1297.1273" y2="1297.1273"/><text fill="#343A40" font-family="Verdana" font-size="12.5" lengthAdjust="spacing" textLength="193.75" x="1183.8542" y="1287.2111">Envoie les d&#233;tails du formulaire</text><polygon fill="#2FA4E7" points="1182.8125,1333.1523,1172.3958,1337.3189,1182.8125,1341.4856,1178.6458,1337.3189" style="stroke:#2FA4E7;stroke-width:1.0416666666666667;"/><line style="stroke:#2FA4E7;stroke-width:3.125;" x1="1176.5625" x2="1516.6667" y1="1337.3189" y2="1337.3189"/><text fill="#343A40" font-family="Verdana" font-size="12.5" lengthAdjust="spacing" textLength="111.4583" x="1194.2708" y="1327.4028">Traite la demande</text><polygon fill="#2FA4E7" points="1839.5833,1373.3439,1850,1377.5106,1839.5833,1381.6772,1843.75,1377.5106" style="stroke:#2FA4E7;stroke-width:1.0416666666666667;"/><line style="stroke:#2FA4E7;stroke-width:3.125;" x1="1517.7083" x2="1845.8333" y1="1377.5106" y2="1377.5106"/><text fill="#343A40" font-family="Verdana" font-size="12.5" lengthAdjust="spacing" textLength="209.375" x="1530.2083" y="1367.5944">Contacte pour plus d'informations</text><polygon fill="#2FA4E7" points="1358.3333,1413.5356,1347.9167,1417.7022,1358.3333,1421.8689,1354.1667,1417.7022" style="stroke:#2FA4E7;stroke-width:1.0416666666666667;"/><line style="stroke:#2FA4E7;stroke-width:3.125;" x1="1352.0833" x2="1851.0417" y1="1417.7022" y2="1417.7022"/><text fill="#343A40" font-family="Verdana" font-size="12.5" lengthAdjust="spacing" textLength="214.5833" x="1369.7917" y="1407.7861">Navigue vers la page de connexion</text><polygon fill="#2FA4E7" points="1839.5833,1453.7272,1850,1457.8939,1839.5833,1462.0605,1843.75,1457.8939" style="stroke:#2FA4E7;stroke-width:1.0416666666666667;"/><line style="stroke:#2FA4E7;stroke-width:3.125;" x1="1346.875" x2="1845.8333" y1="1457.8939" y2="1457.8939"/><text fill="#343A40" font-family="Verdana" font-size="12.5" lengthAdjust="spacing" textLength="176.0417" x="1359.375" y="1447.9777">Affiche la page de connexion</text><polygon fill="#2FA4E7" points="1358.3333,1493.9189,1347.9167,1498.0855,1358.3333,1502.2522,1354.1667,1498.0855" style="stroke:#2FA4E7;stroke-width:1.0416666666666667;"/><line style="stroke:#2FA4E7;stroke-width:3.125;" x1="1352.0833" x2="1851.0417" y1="1498.0855" y2="1498.0855"/><text fill="#343A40" font-family="Verdana" font-size="12.5" lengthAdjust="spacing" textLength="369.7917" x="1369.7917" y="1488.1694">Entre les identifiants (v&#233;t&#233;rinaire, employ&#233;, administrateur)</text><polygon fill="#2FA4E7" points="1505.2083,1534.1105,1515.625,1538.2772,1505.2083,1542.4438,1509.375,1538.2772" style="stroke:#2FA4E7;stroke-width:1.0416666666666667;"/><line style="stroke:#2FA4E7;stroke-width:3.125;" x1="1346.875" x2="1511.4583" y1="1538.2772" y2="1538.2772"/><text fill="#343A40" font-family="Verdana" font-size="12.5" lengthAdjust="spacing" textLength="135.4167" x="1359.375" y="1528.361">Envoie les identifiants</text><polygon fill="#2FA4E7" points="1358.3333,1574.3022,1347.9167,1578.4688,1358.3333,1582.6355,1354.1667,1578.4688" style="stroke:#2FA4E7;stroke-width:1.0416666666666667;"/><line style="stroke:#2FA4E7;stroke-width:3.125;" x1="1352.0833" x2="1516.6667" y1="1578.4688" y2="1578.4688"/><text fill="#343A40" font-family="Verdana" font-size="12.5" lengthAdjust="spacing" textLength="130.2083" x="1369.7917" y="1568.5527">Valide les identifiants</text><polygon fill="#2FA4E7" points="1839.5833,1614.4938,1850,1618.6605,1839.5833,1622.8271,1843.75,1618.6605" style="stroke:#2FA4E7;stroke-width:1.0416666666666667;"/><line style="stroke:#2FA4E7;stroke-width:3.125;" x1="1346.875" x2="1845.8333" y1="1618.6605" y2="1618.6605"/><text fill="#343A40" font-family="Verdana" font-size="12.5" lengthAdjust="spacing" textLength="209.375" x="1359.375" y="1608.7443">Affiche le r&#233;sultat de la connexion</text><!--SRC=[lPLBRjim48RtEiNKNQG5aWjuKS08KdGH545IUD7TMABjGIXIu4D8RzEjpw6BTVGW9Sfs721jlP59VVyyVZxqmUr5AI0Nnak1waPx9qc9p3wJgj1W2HlCdtT6UrNSQgaDVFpQ_RBCaPC25Wz6vy9QRq5fNmlqK9Cb9xnPP1dcZYNhTeAVQ66nZYyvlAESAbGEddYkU_s0Em755UQv5oHda30rSQuElEUd7IPIx1jkoA4RiVqmaM8hHINwbqXXFvv16pQaGrPG6LtfMP1RhHpts173_oD0YHVIAY3zA8L-QjszvkUyOobo5zHnnCO66-7cIs_U4bR6K2t0ygH4g18ZJmg-OqqxBw0MnhOIIPRdYucnMKUsYc3zwJHJIP8erh-4f-Om39G0hu8W6vaqpneb5QBDOQDo5ZooxAlrqYLnJtNyA9psXlCtlz_jKTXLqQEuxyvw52LlzMWGf1vDybpqQC9EFGfnusj6mtbOmdtNenpF17TWekQjjNTQcPO-vfXMCv3_Ui66Pk9wZSMSMQuW-3iTNroh_s1E31pmSAkDfdGN7bkotLA-Fm6-iv1mOHulr60xv3rnHlKeoagIuzq9MsrABv5C8WiegzfhTGbtgjRKR-UYEJWaoN_yH9srN9BaXq7gJIf4YQg8IAnf6MW15RSEbUJlNt55gWsBxTBQexw7xy2hdVTCDj9fqlcg9A9pwUwKCtt_lF-KeotnfyN2fvhTQ0w6L6l2DRJ6wb_DuHgmA4dniJ7OXlkSLdDawZJenCgOFkpxENgnHm6cERJR5Htq1sVizGy0]--></g></svg>