<?xml version="1.0" encoding="us-ascii" standalone="no"?><svg xmlns="http://www.w3.org/2000/svg" xmlns:xlink="http://www.w3.org/1999/xlink" contentStyleType="text/css" height="1878.125px" preserveAspectRatio="none" style="width:1487px;height:1878px;background:#FFFFFF;" version="1.1" viewBox="0 0 1487 1878" width="1487.5px" zoomAndPan="magnify"><defs/><g><!--cluster ZooSystem--><g id="cluster_ZooSystem"><rect fill="none" height="1745.8333" rx="4.1667" ry="4.1667" style="stroke:#2FA4E7;stroke-width:2.0833333333333335;" width="1458.6458" x="17.7083" y="81.75"/><text fill="#2FA4E7" font-family="Verdana" font-size="12.5" font-weight="bold" lengthAdjust="spacing" textLength="77.0833" x="708.4896" y="101.6088">ZooSystem</text></g><!--cluster Staff--><g id="cluster_Staff"><path d="M46.875,1127.5833 L88.5417,1127.5833 A6.25,6.25 0 0 1 92.7083,1131.75 L100,1159.4417 L175,1159.4417 A4.1667,4.1667 0 0 1 179.1667,1163.6083 L179.1667,1526.5417 A4.1667,4.1667 0 0 1 175,1530.7083 L46.875,1530.7083 A4.1667,4.1667 0 0 1 42.7083,1526.5417 L42.7083,1131.75 A4.1667,4.1667 0 0 1 46.875,1127.5833 " fill="none" style="stroke:#2FA4E7;stroke-width:2.0833333333333335;"/><line style="stroke:#2FA4E7;stroke-width:2.0833333333333335;" x1="42.7083" x2="100" y1="1159.4417" y2="1159.4417"/><text fill="#2FA4E7" font-family="Verdana" font-size="12.5" font-weight="bold" lengthAdjust="spacing" textLength="33.3333" x="52.0833" y="1147.4421">Staff</text></g><!--entity Visitor--><g id="elem_Visitor"><ellipse cx="110.9375" cy="552.8021" fill="none" rx="8.3333" ry="8.3333" style="stroke:#2FA4E7;stroke-width:1.0416666666666667;"/><path d="M110.9375,561.1354 L110.9375,589.2604 M97.3958,569.4688 L124.4792,569.4688 M110.9375,589.2604 L97.3958,604.8854 M110.9375,589.2604 L124.4792,604.8854 " fill="none" style="stroke:#2FA4E7;stroke-width:1.0416666666666667;"/><text fill="#2FA4E7" font-family="Verdana" font-size="12.5" lengthAdjust="spacing" textLength="46.875" x="87.5" y="624.7442">Visiteur</text></g><g id="elem_UC1"><ellipse cx="381.5095" cy="994.254" fill="none" rx="114.0824" ry="25.3165" style="stroke:#2FA4E7;stroke-width:2.0833333333333335;"/><text fill="#2FA4E7" font-family="Verdana" font-size="12.5" lengthAdjust="spacing" textLength="158.3333" x="302.3429" y="997.142">Acc&#233;de &#224; la page d'accueil</text></g><g id="elem_UC3"><ellipse cx="381.5079" cy="907.787" fill="none" rx="109.0391" ry="24.3078" style="stroke:#2FA4E7;stroke-width:2.0833333333333335;"/><text fill="#2FA4E7" font-family="Verdana" font-size="12.5" lengthAdjust="spacing" textLength="145.8333" x="308.5912" y="910.675">Voit la liste des services</text></g><g id="elem_UC4"><ellipse cx="381.5073" cy="824.4535" fill="none" rx="99.7677" ry="22.4535" style="stroke:#2FA4E7;stroke-width:2.0833333333333335;"/><text fill="#2FA4E7" font-family="Verdana" font-size="12.5" lengthAdjust="spacing" textLength="121.875" x="320.5698" y="827.3415">Consulte un service</text></g><g id="elem_UC5"><ellipse cx="381.5066" cy="189.0367" fill="none" rx="109.4545" ry="24.3909" style="stroke:#2FA4E7;stroke-width:2.0833333333333335;"/><text fill="#2FA4E7" font-family="Verdana" font-size="12.5" lengthAdjust="spacing" textLength="146.875" x="308.0691" y="191.9247">Voit la liste des habitats</text></g><g id="elem_UC6"><ellipse cx="381.5127" cy="620.2921" fill="none" rx="100.1585" ry="22.5317" style="stroke:#2FA4E7;stroke-width:2.0833333333333335;"/><text fill="#2FA4E7" font-family="Verdana" font-size="12.5" lengthAdjust="spacing" textLength="122.9167" x="320.0543" y="623.1801">Consulte un habitat</text></g><g id="elem_UC7"><ellipse cx="381.5106" cy="536.9542" fill="none" rx="111.1252" ry="24.725" style="stroke:#2FA4E7;stroke-width:2.0833333333333335;"/><text fill="#2FA4E7" font-family="Verdana" font-size="12.5" lengthAdjust="spacing" textLength="151.0417" x="305.9898" y="539.8422">Voit la liste des animaux</text></g><g id="elem_UC8"><ellipse cx="381.5136" cy="453.6256" fill="none" rx="99.3782" ry="22.3756" style="stroke:#2FA4E7;stroke-width:2.0833333333333335;"/><text fill="#2FA4E7" font-family="Verdana" font-size="12.5" lengthAdjust="spacing" textLength="120.8333" x="321.0969" y="456.5136">Consulte un animal</text></g><g id="elem_UC9"><ellipse cx="381.5114" cy="368.2064" fill="none" rx="119.678" ry="26.4356" style="stroke:#2FA4E7;stroke-width:2.0833333333333335;"/><text fill="#2FA4E7" font-family="Verdana" font-size="12.5" lengthAdjust="spacing" textLength="171.875" x="295.5739" y="371.0944">Consulte la page "&#192; propos"</text></g><g id="elem_UC10"><ellipse cx="381.5132" cy="277.5881" fill="none" rx="128.5132" ry="28.2026" style="stroke:#2FA4E7;stroke-width:2.0833333333333335;"/><text fill="#2FA4E7" font-family="Verdana" font-size="12.5" lengthAdjust="spacing" textLength="192.7083" x="285.159" y="280.476">Rempli le formulaire de contact</text></g><g id="elem_UC11"><ellipse cx="1328.0262" cy="1324.462" fill="none" rx="73.0991" ry="21.2328" style="stroke:#2FA4E7;stroke-width:2.0833333333333335;"/><text fill="#2FA4E7" font-family="Verdana" font-size="12.5" lengthAdjust="spacing" textLength="76.0417" x="1290.0054" y="1327.35">Se connecte</text></g><g id="elem_UC17"><ellipse cx="865.1026" cy="189.0455" fill="none" rx="144.0297" ry="31.3059" style="stroke:#2FA4E7;stroke-width:2.0833333333333335;"/><text fill="#2FA4E7" font-family="Verdana" font-size="12.5" lengthAdjust="spacing" textLength="228.125" x="751.0401" y="191.9335">voit la liste des animaux par habitats</text></g><g id="elem_UC22"><ellipse cx="381.5111" cy="742.171" fill="none" rx="105.7507" ry="23.6501" style="stroke:#2FA4E7;stroke-width:2.0833333333333335;"/><text fill="#2FA4E7" font-family="Verdana" font-size="12.5" lengthAdjust="spacing" textLength="137.5" x="312.7611" y="745.059">ajoute un t&#233;moignage</text></g><g id="elem_UC12"><ellipse cx="381.5132" cy="1615.0818" fill="none" rx="151.9716" ry="32.8943" style="stroke:#2FA4E7;stroke-width:2.0833333333333335;"/><text fill="#2FA4E7" font-family="Verdana" font-size="12.5" lengthAdjust="spacing" textLength="245.8333" x="258.5966" y="1617.9698">Cr&#233;&#233; un compte employ&#233; ou v&#233;t&#233;rinaire</text></g><g id="elem_UC13"><ellipse cx="381.5088" cy="1523.4143" fill="none" rx="98.2171" ry="22.1434" style="stroke:#2FA4E7;stroke-width:2.0833333333333335;"/><text fill="#2FA4E7" font-family="Verdana" font-size="12.5" lengthAdjust="spacing" textLength="117.7083" x="322.6546" y="1526.3022">Modifie les horaires</text></g><g id="elem_UC14"><ellipse cx="381.5097" cy="1443.2124" fill="none" rx="97.8326" ry="22.0665" style="stroke:#2FA4E7;stroke-width:2.0833333333333335;"/><text fill="#2FA4E7" font-family="Verdana" font-size="12.5" lengthAdjust="spacing" textLength="116.6667" x="323.1764" y="1446.1003">Modifie les services</text></g><g id="elem_UC15"><ellipse cx="381.5088" cy="1706.7476" fill="none" rx="98.2171" ry="22.1434" style="stroke:#2FA4E7;stroke-width:2.0833333333333335;"/><text fill="#2FA4E7" font-family="Verdana" font-size="12.5" lengthAdjust="spacing" textLength="117.7083" x="322.6546" y="1709.6356">Modifie les habitats</text></g><g id="elem_UC16"><ellipse cx="381.5073" cy="1787.9952" fill="none" rx="99.7677" ry="22.4535" style="stroke:#2FA4E7;stroke-width:2.0833333333333335;"/><text fill="#2FA4E7" font-family="Verdana" font-size="12.5" lengthAdjust="spacing" textLength="121.875" x="320.5698" y="1790.8832">Modifie les animaux</text></g><g id="elem_UC18"><ellipse cx="865.101" cy="969.2515" fill="none" rx="195.8406" ry="41.6681" style="stroke:#2FA4E7;stroke-width:2.0833333333333335;"/><text fill="#2FA4E7" font-family="Verdana" font-size="12.5" lengthAdjust="spacing" textLength="340.625" x="694.7885" y="972.1394">note la date, l'heure et la quantit&#233; donn&#233; aux animaux</text></g><g id="elem_UC23"><ellipse cx="865.1043" cy="866.1209" fill="none" rx="111.1252" ry="24.725" style="stroke:#2FA4E7;stroke-width:2.0833333333333335;"/><text fill="#2FA4E7" font-family="Verdana" font-size="12.5" lengthAdjust="spacing" textLength="151.0417" x="789.5835" y="869.0088">mod&#232;re les t&#233;moignages</text></g><g id="elem_UC19"><ellipse cx="381.5124" cy="1266.1275" fill="none" rx="138.0332" ry="30.1066" style="stroke:#2FA4E7;stroke-width:2.0833333333333335;"/><text fill="#2FA4E7" font-family="Verdana" font-size="12.5" lengthAdjust="spacing" textLength="214.5833" x="274.2207" y="1269.0155">Rempli compte rendu par animaux</text></g><g id="elem_UC20"><ellipse cx="381.5053" cy="1358.8281" fill="none" rx="117.9428" ry="26.0886" style="stroke:#2FA4E7;stroke-width:2.0833333333333335;"/><text fill="#2FA4E7" font-family="Verdana" font-size="12.5" lengthAdjust="spacing" textLength="167.7083" x="297.6512" y="1361.7161">Commente sur les habitats</text></g><g id="elem_UC21"><ellipse cx="381.5087" cy="1166.1246" fill="none" rx="153.3837" ry="33.1767" style="stroke:#2FA4E7;stroke-width:2.0833333333333335;"/><text fill="#2FA4E7" font-family="Verdana" font-size="12.5" lengthAdjust="spacing" textLength="248.9583" x="257.0295" y="1169.0126">peut voir la consommation des animaux</text></g><g id="elem_UC2"><ellipse cx="1328.0365" cy="547.374" fill="none" rx="131.6615" ry="28.8323" style="stroke:#2FA4E7;stroke-width:2.0833333333333335;"/><text fill="#2FA4E7" font-family="Verdana" font-size="12.5" lengthAdjust="spacing" textLength="200" x="1228.0365" y="550.2619">Consulte un animal d'un habitat</text></g><!--entity Admin--><g id="elem_Admin"><ellipse cx="110.9375" cy="1434.0521" fill="none" rx="8.3333" ry="8.3333" style="stroke:#2FA4E7;stroke-width:1.0416666666666667;"/><path d="M110.9375,1442.3854 L110.9375,1470.5104 M97.3958,1450.7188 L124.4792,1450.7188 M110.9375,1470.5104 L97.3958,1486.1354 M110.9375,1470.5104 L124.4792,1486.1354 " fill="none" style="stroke:#2FA4E7;stroke-width:1.0416666666666667;"/><text fill="#2FA4E7" font-family="Verdana" font-size="12.5" lengthAdjust="spacing" textLength="92.7083" x="64.5833" y="1505.9942">Administrateur</text></g><!--entity Employee--><g id="elem_Employee"><ellipse cx="110.9375" cy="1181.9688" fill="none" rx="8.3333" ry="8.3333" style="stroke:#2FA4E7;stroke-width:1.0416666666666667;"/><path d="M110.9375,1190.3021 L110.9375,1218.4271 M97.3958,1198.6354 L124.4792,1198.6354 M110.9375,1218.4271 L97.3958,1234.0521 M110.9375,1218.4271 L124.4792,1234.0521 " fill="none" style="stroke:#2FA4E7;stroke-width:1.0416666666666667;"/><text fill="#2FA4E7" font-family="Verdana" font-size="12.5" lengthAdjust="spacing" textLength="53.125" x="84.375" y="1253.9109">Employ&#233;</text></g><!--entity Vet--><g id="elem_Vet"><ellipse cx="110.9375" cy="1308.0104" fill="none" rx="8.3333" ry="8.3333" style="stroke:#2FA4E7;stroke-width:1.0416666666666667;"/><path d="M110.9375,1316.3438 L110.9375,1344.4688 M97.3958,1324.6771 L124.4792,1324.6771 M110.9375,1344.4688 L97.3958,1360.0938 M110.9375,1344.4688 L124.4792,1360.0938 " fill="none" style="stroke:#2FA4E7;stroke-width:1.0416666666666667;"/><text fill="#2FA4E7" font-family="Verdana" font-size="12.5" lengthAdjust="spacing" textLength="67.7083" x="77.0833" y="1379.9526">V&#233;t&#233;rinaire</text></g><!--link Visitor to UC1--><g id="link_Visitor_UC1"><path d="M113.3333,632.8333 C118.1146,709.0417 138.9479,863.9896 228.125,950.5 C243.1354,965.0625 256.7147,972.894 276.7564,979.4357 " fill="none" id="Visitor-to-UC1" style="stroke:#2FA4E7;stroke-width:3.125;"/><polygon fill="#2FA4E7" points="282.6979,981.375,275.0785,974.505,277.7467,979.7589,272.4928,982.427,282.6979,981.375" style="stroke:#2FA4E7;stroke-width:3.125;"/></g><!--link Visitor to UC3--><g id="link_Visitor_UC3"><path d="M118.4688,632.8958 C129.7396,694.2813 158.7396,803.7813 228.125,865.0833 C244.4896,879.5417 259.4033,887.3251 280.4346,893.6897 " fill="none" id="Visitor-to-UC3" style="stroke:#2FA4E7;stroke-width:3.125;"/><polygon fill="#2FA4E7" points="286.4167,895.5,278.6504,888.7965,281.4316,893.9914,276.2367,896.7726,286.4167,895.5" style="stroke:#2FA4E7;stroke-width:3.125;"/></g><!--link Visitor to UC4--><g id="link_Visitor_UC4"><path d="M127.125,633.0208 C144.5313,677.8646 177.3854,745.4167 228.125,783.8333 C247.1146,798.2083 264.7451,805.9185 287.7242,811.9289 " fill="none" id="Visitor-to-UC4" style="stroke:#2FA4E7;stroke-width:3.125;"/><polygon fill="#2FA4E7" points="293.7708,813.5104,285.7553,807.107,288.732,812.1925,283.6466,815.1692,293.7708,813.5104" style="stroke:#2FA4E7;stroke-width:3.125;"/></g><!--link Visitor to UC5--><g id="link_Visitor_UC5"><path d="M113.4688,543.0729 C118.4583,467.5417 139.625,315.1146 228.125,230.7083 C243.4063,216.1354 257.2987,208.4053 277.6216,202.1344 " fill="none" id="Visitor-to-UC5" style="stroke:#2FA4E7;stroke-width:3.125;"/><polygon fill="#2FA4E7" points="283.5938,200.2917,273.407,199.0744,278.6169,201.8273,275.864,207.0373,283.5938,200.2917" style="stroke:#2FA4E7;stroke-width:3.125;"/></g><!--link Visitor to UC6--><g id="link_Visitor_UC6"><path d="M139.6979,591.3333 C175.4688,595.6354 233.2114,602.5765 286.2114,608.9515 " fill="none" id="Visitor-to-UC6" style="stroke:#2FA4E7;stroke-width:3.125;"/><polygon fill="#2FA4E7" points="292.4167,609.6979,283.6064,604.4415,287.2456,609.0759,282.6112,612.7152,292.4167,609.6979" style="stroke:#2FA4E7;stroke-width:3.125;"/></g><!--link Visitor to UC7--><g id="link_Visitor_UC7"><path d="M139.6979,582.7292 C176.2083,575.7917 235.9224,564.4375 289.5369,554.25 " fill="none" id="Visitor-to-UC7" style="stroke:#2FA4E7;stroke-width:3.125;"/><polygon fill="#2FA4E7" points="295.6771,553.0833,285.6891,550.74,290.5603,554.0556,287.2447,558.9268,295.6771,553.0833" style="stroke:#2FA4E7;stroke-width:3.125;"/></g><!--link Visitor to UC8--><g id="link_Visitor_UC8"><path d="M139.6563,560 C161.8125,539.0833 194.625,511.2604 228.125,494.25 C251.3125,482.4792 272.2083,475.3632 296.9375,469.1653 " fill="none" id="Visitor-to-UC8" style="stroke:#2FA4E7;stroke-width:3.125;"/><polygon fill="#2FA4E7" points="303,467.6458,292.8933,465.8834,297.9479,468.912,294.9192,473.9667,303,467.6458" style="stroke:#2FA4E7;stroke-width:3.125;"/></g><!--link Visitor to UC9--><g id="link_Visitor_UC9"><path d="M130.8958,543.0521 C149.8646,503.25 182.7813,446.4375 228.125,413 C245.3229,400.3229 260.1055,393.0995 280.6784,386.5682 " fill="none" id="Visitor-to-UC9" style="stroke:#2FA4E7;stroke-width:3.125;"/><polygon fill="#2FA4E7" points="286.6354,384.6771,276.4391,383.5425,281.6712,386.2531,278.9607,391.4852,286.6354,384.6771" style="stroke:#2FA4E7;stroke-width:3.125;"/></g><!--link Visitor to UC10--><g id="link_Visitor_UC10"><path d="M119.6563,543.2813 C132.0833,484.4687 162.2083,381.7813 228.125,323.4167 C242.5,310.6875 254.417,303.6332 272.7191,296.9874 " fill="none" id="Visitor-to-UC10" style="stroke:#2FA4E7;stroke-width:3.125;"/><polygon fill="#2FA4E7" points="278.5938,294.8542,268.3596,294.1375,273.6982,296.6318,271.2039,301.9704,278.5938,294.8542" style="stroke:#2FA4E7;stroke-width:3.125;"/></g><!--link Visitor to UC22--><g id="link_Visitor_UC22"><path d="M139.4375,632.6146 C153.9271,652.8125 173.375,675.3958 195.8333,690.0833 C224.8229,709.0417 254.6504,719.7347 287.0774,727.4847 " fill="none" id="Visitor-to-UC22" style="stroke:#2FA4E7;stroke-width:3.125;"/><polygon fill="#2FA4E7" points="293.1563,728.9375,285.0066,722.7057,288.0906,727.7268,283.0695,730.8108,293.1563,728.9375" style="stroke:#2FA4E7;stroke-width:3.125;"/></g><!--link Visitor to UC17--><g id="link_Visitor_UC17"><path d="M116.8542,543.0104 C129,440.4271 164.3229,194.3958 228.125,146.3333 C400.25,16.6667 672.7658,106.5871 796.0679,158.1912 " fill="none" id="Visitor-to-UC17" style="stroke:#2FA4E7;stroke-width:3.125;"/><polygon fill="#2FA4E7" points="801.8333,160.6042,794.7938,153.1411,797.0288,158.5934,791.5766,160.8284,801.8333,160.6042" style="stroke:#2FA4E7;stroke-width:3.125;"/></g><!--link Visitor to UC2--><g id="link_Visitor_UC2"><path d="M139.8438,611.8542 C162.0938,629.2396 194.9479,651.3646 228.125,660.9167 C359.1458,698.6354 398.8958,670.6146 534.8958,660.9167 C785.7083,643.0313 1071.6646,594.8022 1221.3,567.4168 " fill="none" id="Visitor-to-UC2" style="stroke:#2FA4E7;stroke-width:3.125;"/><polygon fill="#2FA4E7" points="1227.4479,566.2917,1217.476,563.8808,1222.3247,567.2293,1218.9762,572.078,1227.4479,566.2917" style="stroke:#2FA4E7;stroke-width:3.125;"/></g><!--link Admin to UC12--><g id="link_Admin_UC12"><path d="M159.1458,1514.3021 C179.2188,1531.6563 203.625,1550.5313 228.125,1564.0417 C245.9583,1573.875 260.1212,1580.1572 279.6733,1587.1052 " fill="none" id="Admin-to-UC12" style="stroke:#2FA4E7;stroke-width:3.125;"/><polygon fill="#2FA4E7" points="285.5625,1589.1979,278.1238,1582.1326,280.6548,1587.454,275.3335,1589.9849,285.5625,1589.1979" style="stroke:#2FA4E7;stroke-width:3.125;"/></g><!--link Admin to UC13--><g id="link_Admin_UC13"><path d="M162.7917,1479.5 C203.5417,1487.7188 255.1444,1498.1279 300.9152,1507.3674 " fill="none" id="Admin-to-UC13" style="stroke:#2FA4E7;stroke-width:3.125;"/><polygon fill="#2FA4E7" points="307.0417,1508.6042,298.6765,1502.6648,301.9363,1507.5736,297.0276,1510.8334,307.0417,1508.6042" style="stroke:#2FA4E7;stroke-width:3.125;"/></g><!--link Admin to UC14--><g id="link_Admin_UC14"><path d="M162.7917,1464.3229 C198.9063,1460.8229 242.1229,1456.6241 284.7688,1452.4887 " fill="none" id="Admin-to-UC14" style="stroke:#2FA4E7;stroke-width:3.125;"/><polygon fill="#2FA4E7" points="290.9896,1451.8854,281.2562,1448.6431,285.8056,1452.3881,282.0605,1456.9375,290.9896,1451.8854" style="stroke:#2FA4E7;stroke-width:3.125;"/></g><!--link Admin to UC15--><g id="link_Admin_UC15"><path d="M126.9063,1514.0833 C144.2083,1559.1667 177.0729,1627.375 228.125,1666.125 C247.3125,1680.6875 265.2611,1688.4786 288.4903,1694.4786 " fill="none" id="Admin-to-UC15" style="stroke:#2FA4E7;stroke-width:3.125;"/><polygon fill="#2FA4E7" points="294.5417,1696.0417,286.5066,1689.6628,289.4988,1694.7391,284.4225,1697.7314,294.5417,1696.0417" style="stroke:#2FA4E7;stroke-width:3.125;"/></g><!--link Admin to UC16--><g id="link_Admin_UC16"><path d="M118.2604,1514.1667 C129.3021,1575.8854 158.0729,1686.1875 228.125,1747.375 C245.6458,1762.6771 262.2961,1770.6851 284.7753,1776.7059 " fill="none" id="Admin-to-UC16" style="stroke:#2FA4E7;stroke-width:3.125;"/><polygon fill="#2FA4E7" points="290.8125,1778.3229,282.8347,1771.8726,285.7815,1776.9754,280.6787,1779.9222,290.8125,1778.3229" style="stroke:#2FA4E7;stroke-width:3.125;"/></g><!--link Employee to UC18--><g id="link_Employee_UC18"><path d="M143.0938,1200.3021 C157.4375,1191.7188 174.1979,1180.5208 187.5,1168.2083 C209.3229,1148.0208 202.3021,1129.8125 228.125,1115.0833 C387.4896,1024.1771 460.8021,1113.625 638.0208,1066.125 C689.9792,1052.1979 739.9073,1031.1935 782.949,1010.7351 " fill="none" id="Employee-to-UC18" style="stroke:#2FA4E7;stroke-width:3.125;"/><polygon fill="#2FA4E7" points="788.5938,1008.0521,778.3379,1008.3135,783.8898,1010.288,781.9153,1015.8399,788.5938,1008.0521" style="stroke:#2FA4E7;stroke-width:3.125;"/></g><!--link Employee to UC23--><g id="link_Employee_UC23"><path d="M142.9688,1202.4688 C157.9688,1194.1146 175.3229,1182.4688 187.5,1168.2083 C193.4271,1161.2708 191.9375,1157.7083 195.8333,1149.4583 C209.5313,1120.4375 202.1875,1103.7708 228.125,1084.875 C339.625,1003.6875 411.2188,1099.0625 534.8958,1038 C609.1667,1001.3229 596.2083,947.875 669.2708,908.8333 C698.4271,893.25 726.8167,884.5668 758.6292,878.2751 " fill="none" id="Employee-to-UC23" style="stroke:#2FA4E7;stroke-width:3.125;"/><polygon fill="#2FA4E7" points="764.7604,877.0625,754.7552,874.7939,759.651,878.073,756.372,882.9689,764.7604,877.0625" style="stroke:#2FA4E7;stroke-width:3.125;"/></g><!--link Vet to UC19--><g id="link_Vet_UC19"><path d="M150.4479,1332.1667 C188.3646,1321.2813 241.5447,1306.0057 290.3884,1291.9849 " fill="none" id="Vet-to-UC19" style="stroke:#2FA4E7;stroke-width:3.125;"/><polygon fill="#2FA4E7" points="296.3958,1290.2604,286.2351,1288.8422,291.3897,1291.6975,288.5344,1296.852,296.3958,1290.2604" style="stroke:#2FA4E7;stroke-width:3.125;"/></g><!--link Vet to UC20--><g id="link_Vet_UC20"><path d="M150.4479,1345.4479 C180.9688,1347.2188 219.0314,1349.4396 260.6355,1351.8563 " fill="none" id="Vet-to-UC20" style="stroke:#2FA4E7;stroke-width:3.125;"/><polygon fill="#2FA4E7" points="266.875,1352.2188,257.7574,1347.5154,261.6754,1351.9167,257.2742,1355.8348,266.875,1352.2188" style="stroke:#2FA4E7;stroke-width:3.125;"/></g><!--link Vet to UC21--><g id="link_Vet_UC21"><path d="M150.3958,1314.4792 C162.9271,1304.2083 176.4479,1292.0729 187.5,1279.6667 C209.2813,1255.2188 202.2188,1238.2292 228.125,1218.2083 C242.8333,1206.8438 254.3755,1200.1893 272.0005,1193.1268 " fill="none" id="Vet-to-UC21" style="stroke:#2FA4E7;stroke-width:3.125;"/><polygon fill="#2FA4E7" points="277.8021,1190.8021,267.5499,1190.4215,272.9675,1192.7394,270.6496,1198.1569,277.8021,1190.8021" style="stroke:#2FA4E7;stroke-width:3.125;"/></g><!--link UC22 to UC23--><g id="link_UC22_UC23"><path d="M452.0521,760.0625 C542.2917,783.2917 693.0411,822.0982 784.9786,845.7648 " fill="none" id="UC22-to-UC23" style="stroke:#2FA4E7;stroke-width:3.125;stroke-dasharray:7.0,7.0;"/><polygon fill="#2FA4E7" points="791.0313,847.3229,782.991,840.9507,785.9874,846.0245,780.9135,849.0209,791.0313,847.3229" style="stroke:#2FA4E7;stroke-width:3.125;"/><text fill="#343A40" font-family="Verdana" font-size="12.5" lengthAdjust="spacing" textLength="59.375" x="572.3958" y="784.9421">&#171;extend&#187;</text></g><!--link UC21 to UC18--><g id="link_UC21_UC18"><path d="M532.7917,1160.1146 C570.3854,1152.3646 608.3958,1138.4167 638.0208,1114.0417 C665.8958,1091.0938 643.0938,1063.9167 669.2708,1039.0417 C686.8438,1022.3333 702.9535,1012.046 725.5994,1002.3376 " fill="none" id="UC21-to-UC18" style="stroke:#2FA4E7;stroke-width:3.125;stroke-dasharray:7.0,7.0;"/><polygon fill="#2FA4E7" points="731.3438,999.875,721.0854,999.7394,726.5568,1001.9272,724.3689,1007.3985,731.3438,999.875" style="stroke:#2FA4E7;stroke-width:3.125;"/><text fill="#343A40" font-family="Verdana" font-size="12.5" lengthAdjust="spacing" textLength="59.375" x="572.3958" y="1105.7755">&#171;extend&#187;</text></g><!--link UC12 to UC11--><g id="link_UC12_UC11"><path d="M524.6771,1626.4688 C666.2813,1632.2813 887.0833,1626.1667 1060.9479,1552.5833 C1173.2917,1505.0417 1268.9086,1396.8869 1306.8045,1350.1265 " fill="none" id="UC12-to-UC11" style="stroke:#2FA4E7;stroke-width:3.125;stroke-dasharray:7.0,7.0;"/><polygon fill="#2FA4E7" points="1310.7396,1345.2708,1301.5998,1349.9309,1307.4603,1349.3172,1308.074,1355.1777,1310.7396,1345.2708" style="stroke:#2FA4E7;stroke-width:3.125;"/><text fill="#343A40" font-family="Verdana" font-size="12.5" lengthAdjust="spacing" textLength="60.4167" x="834.8958" y="1544.3171">&#171;include&#187;</text></g><!--link UC13 to UC11--><g id="link_UC13_UC11"><path d="M480.0625,1524.2396 C613.6875,1522.9688 860.0313,1512.0208 1060.9479,1454.6667 C1151.4375,1428.8333 1243.1757,1376.6692 1291.1757,1347.1588 " fill="none" id="UC13-to-UC11" style="stroke:#2FA4E7;stroke-width:3.125;stroke-dasharray:7.0,7.0;"/><polygon fill="#2FA4E7" points="1296.5,1343.8854,1286.3314,1345.2459,1292.0631,1346.6132,1290.6959,1352.3449,1296.5,1343.8854" style="stroke:#2FA4E7;stroke-width:3.125;"/><text fill="#343A40" font-family="Verdana" font-size="12.5" lengthAdjust="spacing" textLength="60.4167" x="834.8958" y="1446.4005">&#171;include&#187;</text></g><!--link UC14 to UC11--><g id="link_UC14_UC11"><path d="M475.0208,1436.3333 C605.8854,1426.0417 852.3958,1404.5729 1060.9479,1374.4583 C1132.5833,1364.1146 1208.1813,1349.3895 1261.9313,1338.2853 " fill="none" id="UC14-to-UC11" style="stroke:#2FA4E7;stroke-width:3.125;stroke-dasharray:7.0,7.0;"/><polygon fill="#2FA4E7" points="1268.0521,1337.0208,1258.028,1334.8371,1262.9515,1338.0746,1259.7139,1342.9981,1268.0521,1337.0208" style="stroke:#2FA4E7;stroke-width:3.125;"/><text fill="#343A40" font-family="Verdana" font-size="12.5" lengthAdjust="spacing" textLength="60.4167" x="834.8958" y="1366.1921">&#171;include&#187;</text></g><!--link UC15 to UC11--><g id="link_UC15_UC11"><path d="M460.8958,1720.125 C592.4792,1738.6979 862.875,1760 1060.9479,1663 C1202.6042,1593.6354 1289.0242,1414.3727 1315.8888,1351.4768 " fill="none" id="UC15-to-UC11" style="stroke:#2FA4E7;stroke-width:3.125;stroke-dasharray:7.0,7.0;"/><polygon fill="#2FA4E7" points="1318.3438,1345.7292,1310.8295,1352.714,1316.2979,1350.5189,1318.493,1355.9873,1318.3438,1345.7292" style="stroke:#2FA4E7;stroke-width:3.125;"/><text fill="#343A40" font-family="Verdana" font-size="12.5" lengthAdjust="spacing" textLength="60.4167" x="834.8958" y="1654.7338">&#171;include&#187;</text></g><!--link UC16 to UC11--><g id="link_UC16_UC11"><path d="M453.1354,1803.9688 C581.2708,1829.2396 857.6667,1866.4479 1060.9479,1771.3333 C1238.8229,1688.1042 1305.1924,1429.8453 1321.5258,1352.2099 " fill="none" id="UC16-to-UC11" style="stroke:#2FA4E7;stroke-width:3.125;stroke-dasharray:7.0,7.0;"/><polygon fill="#2FA4E7" points="1322.8125,1346.0938,1316.805,1354.4101,1321.7402,1351.1905,1324.9598,1356.1257,1322.8125,1346.0938" style="stroke:#2FA4E7;stroke-width:3.125;"/><text fill="#343A40" font-family="Verdana" font-size="12.5" lengthAdjust="spacing" textLength="60.4167" x="834.8958" y="1763.0671">&#171;include&#187;</text></g><!--link UC23 to UC11--><g id="link_UC23_UC11"><path d="M962.6146,878.3542 C994.9167,884.75 1030.4375,894.3854 1060.9479,908.8333 C1114.2708,934.0833 1128.1458,945.1458 1165.1146,991.125 C1248.1458,1094.4167 1300.4442,1241.3648 1318.4546,1297.1461 " fill="none" id="UC23-to-UC11" style="stroke:#2FA4E7;stroke-width:3.125;stroke-dasharray:7.0,7.0;"/><polygon fill="#2FA4E7" points="1320.375,1303.0938,1321.4596,1292.892,1318.7747,1298.1374,1313.5294,1295.4525,1320.375,1303.0938" style="stroke:#2FA4E7;stroke-width:3.125;"/><text fill="#343A40" font-family="Verdana" font-size="12.5" lengthAdjust="spacing" textLength="60.4167" x="1098.4479" y="917.2338">&#171;include&#187;</text></g><!--link UC19 to UC11--><g id="link_UC19_UC11"><path d="M519.4896,1268.5 C656.6458,1271.6042 873.6667,1278.4896 1060.9479,1293.2083 C1129.4479,1298.5938 1201.3045,1307.343 1255.0545,1314.4888 " fill="none" id="UC19-to-UC11" style="stroke:#2FA4E7;stroke-width:3.125;stroke-dasharray:7.0,7.0;"/><polygon fill="#2FA4E7" points="1261.25,1315.3125,1252.5059,1309.9467,1256.0871,1314.6261,1251.4077,1318.2073,1261.25,1315.3125" style="stroke:#2FA4E7;stroke-width:3.125;"/><text fill="#343A40" font-family="Verdana" font-size="12.5" lengthAdjust="spacing" textLength="60.4167" x="834.8958" y="1265.1505">&#171;include&#187;</text></g><!--link UC20 to UC11--><g id="link_UC20_UC11"><path d="M493.1042,1349.9896 C546.3229,1346.0417 611.0729,1341.6979 669.2708,1339.0417 C881.7708,1329.3542 1126.9586,1326.0975 1248.1877,1325.0142 " fill="none" id="UC20-to-UC11" style="stroke:#2FA4E7;stroke-width:3.125;stroke-dasharray:7.0,7.0;"/><polygon fill="#2FA4E7" points="1254.4375,1324.9583,1245.0256,1320.8756,1249.2294,1325.0049,1245.1001,1329.2086,1254.4375,1324.9583" style="stroke:#2FA4E7;stroke-width:3.125;"/><text fill="#343A40" font-family="Verdana" font-size="12.5" lengthAdjust="spacing" textLength="60.4167" x="834.8958" y="1320.3588">&#171;include&#187;</text></g><!--link UC18 to UC11--><g id="link_UC18_UC11"><path d="M1017.5208,995.7708 C1068.1771,1010.0938 1122.5417,1031.9375 1165.1146,1065.0833 C1249.5104,1130.7917 1299.168,1247.8871 1317.4076,1297.2725 " fill="none" id="UC18-to-UC11" style="stroke:#2FA4E7;stroke-width:3.125;stroke-dasharray:7.0,7.0;"/><polygon fill="#2FA4E7" points="1319.5729,1303.1354,1320.2335,1292.8975,1317.7685,1298.2497,1312.4163,1295.7846,1319.5729,1303.1354" style="stroke:#2FA4E7;stroke-width:3.125;"/><text fill="#343A40" font-family="Verdana" font-size="12.5" lengthAdjust="spacing" textLength="60.4167" x="1098.4479" y="1018.2755">&#171;include&#187;</text></g><!--link UC21 to UC11--><g id="link_UC21_UC11"><path d="M532.1771,1173 C670.5833,1181.4688 881.3958,1199.75 1060.9479,1238 C1141.2188,1255.1042 1225.6105,1285.069 1277.673,1304.9856 " fill="none" id="UC21-to-UC11" style="stroke:#2FA4E7;stroke-width:3.125;stroke-dasharray:7.0,7.0;"/><polygon fill="#2FA4E7" points="1283.5104,1307.2188,1276.243,1299.9774,1278.6459,1305.3578,1273.2655,1307.7607,1283.5104,1307.2188" style="stroke:#2FA4E7;stroke-width:3.125;"/><text fill="#343A40" font-family="Verdana" font-size="12.5" lengthAdjust="spacing" textLength="60.4167" x="834.8958" y="1175.5671">&#171;include&#187;</text></g><!--link UC5 to UC17--><g id="link_UC5_UC17"><path d="M491.2083,189.0417 C559.0313,189.0417 640.8542,189.0417 714.375,189.0417 " fill="none" id="UC5-to-UC17" style="stroke:#2FA4E7;stroke-width:3.125;stroke-dasharray:7.0,7.0;"/><polygon fill="#2FA4E7" points="720.625,189.0417,711.25,184.875,715.4167,189.0417,711.25,193.2083,720.625,189.0417" style="stroke:#2FA4E7;stroke-width:3.125;"/><text fill="#343A40" font-family="Verdana" font-size="12.5" lengthAdjust="spacing" textLength="59.375" x="572.3958" y="180.7755">&#171;extend&#187;</text></g><!--link UC17 to UC2--><g id="link_UC17_UC2"><path d="M905.4375,219.5937 C993.5938,288.1354 1201.1184,449.4965 1286.0663,515.559 " fill="none" id="UC17-to-UC2" style="stroke:#2FA4E7;stroke-width:3.125;stroke-dasharray:7.0,7.0;"/><polygon fill="#2FA4E7" points="1291,519.3958,1286.1574,510.3515,1286.8886,516.1985,1281.0416,516.9297,1291,519.3958" style="stroke:#2FA4E7;stroke-width:3.125;"/><text fill="#343A40" font-family="Verdana" font-size="12.5" lengthAdjust="spacing" textLength="59.375" x="1098.9688" y="359.9421">&#171;extend&#187;</text></g><!--SRC=[VLLBRjim4Dtp5AoxoAO98lbV106AeDrrqw1PTCT8OviDHQhy12cA0ZrAb_KvTB4E9SeG6KlUIAFtPZYVn_4RUu0AQ07Q2M3oKZahk0HYdhYicMOLVMJ5qruh9yix9PIcRp-rFo9WPwbLLFFzmTAIQoWiLv8G_yBaNW3zfjJzJsEXehy8AomwFt33_PCPEclVmUaPgV48jWTwRzbkT-9-A2ikMsRxnetLhEDt-CUg5kedG4lfZEROWmzWkqEQessEcak62Sx8Rq8eTGOAPW3Z5aLpB84sVwbWjFOfb1UiA1nmCVFkN- -o8Vz1SUkP0dD1AXXgG3_p0anWpuViEoMD4qXqikS5sc8ww84zSiji7tGv5ZJm0cqr7PH9NZ7t4iZhiPWjhIz-SvRLjshM_A6rLhKoiy3V3lbV04V2ASfWftJbX1y0Pa8B9ItEgE_lzT3dleKb2gXlLHODu7ciBCn8fttBeYBPTvHsMoBgeL9yBx66mCppg53T79kZPnQggj47WhQeSlGvqbCuA7B_h4g-uzWcFqcbFU-KqNoCcEWeMun6J6fSZX7ZUMUHEgJgnbZYVNf7nSK1RnMMsRRsXsFISgoHbZW9VFZk9i4YNLIgRFxfxj11Q_iCy_aPKOJ6Qf2bQqUN7B2DXLTL895kd3xNWpoIK0tEKjI9ziMWc0nwCx-Opjo2F9k-1hWDNbspd91-YLrUthOR8hRdYRr8x6LYhn9xdTYRnDwcvryd7r3D2ICDYJLqopNWUMpEOtCHcylON15oMiJXqoRzWXeWVY47V3imS7W38oF4vq-lhZet-fxUtC2BHPtStdee2r2sIQ6izygo5kAo4Aw43fjFO8i9R3c1hSQnVEgyxOJVzOJVPi8l6yTE9QnVTMpTzpb62FvB_WS0]--></g></svg>